<svg xmlns="http://www.w3.org/2000/svg" xmlns:xlink="http://www.w3.org/1999/xlink" width="500" zoomAndPan="magnify" viewBox="0 0 375 374.999991" height="500" preserveAspectRatio="xMidYMid meet" version="1.0"><defs><clipPath id="b4adb42f1c"><path d="M 364 205 L 371.25 205 L 371.25 212 L 364 212 Z M 364 205 " clip-rule="nonzero"/></clipPath><clipPath id="160d8a4450"><path d="M 364 145 L 371.25 145 L 371.25 153 L 364 153 Z M 364 145 " clip-rule="nonzero"/></clipPath></defs><rect x="-37.5" width="450" fill="#ffffff" y="-37.499999" height="449.999989" fill-opacity="1"/><rect x="-37.5" width="450" fill="#10144a" y="-37.499999" height="449.999989" fill-opacity="1"/><path fill="#1086f4" d="M 341.4375 292.398438 C 341.4375 292.875 341.347656 293.335938 341.164062 293.78125 C 340.980469 294.222656 340.71875 294.613281 340.382812 294.949219 C 340.042969 295.289062 339.652344 295.550781 339.210938 295.734375 C 338.769531 295.917969 338.308594 296.007812 337.828125 296.007812 C 337.351562 296.007812 336.890625 295.917969 336.445312 295.734375 C 336.003906 295.550781 335.613281 295.289062 335.277344 294.949219 C 334.9375 294.613281 334.675781 294.222656 334.492188 293.78125 C 334.308594 293.335938 334.21875 292.875 334.21875 292.398438 C 334.21875 291.917969 334.308594 291.457031 334.492188 291.015625 C 334.675781 290.574219 334.9375 290.183594 335.277344 289.84375 C 335.613281 289.507812 336.003906 289.246094 336.445312 289.0625 C 336.890625 288.878906 337.351562 288.789062 337.828125 288.789062 C 338.308594 288.789062 338.769531 288.878906 339.210938 289.0625 C 339.652344 289.246094 340.042969 289.507812 340.382812 289.84375 C 340.71875 290.183594 340.980469 290.574219 341.164062 291.015625 C 341.347656 291.457031 341.4375 291.917969 341.4375 292.398438 Z M 341.4375 292.398438 " fill-opacity="1" fill-rule="nonzero"/><path fill="#1086f4" d="M 294.625 333.097656 C 294.824219 333.292969 295 333.507812 295.152344 333.738281 C 295.308594 333.96875 295.4375 334.214844 295.546875 334.472656 C 295.652344 334.726562 295.730469 334.992188 295.785156 335.265625 C 295.839844 335.539062 295.867188 335.8125 295.867188 336.09375 C 295.867188 336.371094 295.839844 336.644531 295.785156 336.917969 C 295.730469 337.191406 295.652344 337.457031 295.546875 337.714844 C 295.4375 337.972656 295.308594 338.214844 295.152344 338.445312 C 295 338.675781 294.824219 338.890625 294.625 339.089844 C 294.429688 339.285156 294.214844 339.460938 293.984375 339.617188 C 293.753906 339.769531 293.507812 339.902344 293.253906 340.007812 C 292.996094 340.113281 292.730469 340.195312 292.457031 340.246094 C 292.183594 340.300781 291.910156 340.328125 291.628906 340.328125 C 291.351562 340.328125 291.078125 340.300781 290.804688 340.246094 C 290.53125 340.195312 290.265625 340.113281 290.007812 340.007812 C 289.753906 339.902344 289.507812 339.769531 289.277344 339.617188 C 289.046875 339.460938 288.832031 339.285156 288.636719 339.089844 C 288.4375 338.890625 288.261719 338.675781 288.109375 338.445312 C 287.953125 338.214844 287.824219 337.972656 287.714844 337.714844 C 287.609375 337.457031 287.53125 337.191406 287.476562 336.917969 C 287.421875 336.644531 287.394531 336.371094 287.394531 336.09375 C 287.394531 335.8125 287.421875 335.539062 287.476562 335.265625 C 287.53125 334.992188 287.609375 334.726562 287.714844 334.472656 C 287.824219 334.214844 287.953125 333.96875 288.109375 333.738281 C 288.261719 333.507812 288.4375 333.292969 288.636719 333.097656 C 288.832031 332.898438 289.046875 332.722656 289.277344 332.570312 C 289.507812 332.414062 289.753906 332.285156 290.007812 332.179688 C 290.265625 332.070312 290.53125 331.992188 290.804688 331.9375 C 291.078125 331.882812 291.351562 331.855469 291.628906 331.855469 C 291.910156 331.855469 292.183594 331.882812 292.457031 331.9375 C 292.730469 331.992188 292.996094 332.070312 293.253906 332.179688 C 293.507812 332.285156 293.753906 332.414062 293.984375 332.570312 C 294.214844 332.722656 294.429688 332.898438 294.625 333.097656 Z M 294.625 333.097656 " fill-opacity="1" fill-rule="nonzero"/><path fill="#1086f4" d="M 257.957031 315.128906 C 258.015625 315.382812 258.050781 315.640625 258.058594 315.902344 C 258.066406 316.164062 258.050781 316.421875 258.011719 316.679688 C 257.96875 316.9375 257.902344 317.1875 257.808594 317.433594 C 257.71875 317.679688 257.605469 317.910156 257.46875 318.132812 C 257.332031 318.355469 257.171875 318.5625 256.996094 318.753906 C 256.816406 318.945312 256.621094 319.117188 256.410156 319.269531 C 256.199219 319.421875 255.972656 319.550781 255.734375 319.660156 C 255.5 319.769531 255.253906 319.851562 255 319.914062 C 254.746094 319.972656 254.488281 320.007812 254.226562 320.015625 C 253.964844 320.027344 253.707031 320.007812 253.449219 319.96875 C 253.191406 319.925781 252.941406 319.859375 252.695312 319.769531 C 252.449219 319.675781 252.21875 319.5625 251.996094 319.425781 C 251.773438 319.289062 251.566406 319.128906 251.375 318.953125 C 251.183594 318.773438 251.011719 318.578125 250.859375 318.367188 C 250.707031 318.15625 250.578125 317.929688 250.46875 317.695312 C 250.359375 317.457031 250.277344 317.210938 250.214844 316.957031 C 250.15625 316.703125 250.121094 316.445312 250.113281 316.183594 C 250.101562 315.921875 250.121094 315.664062 250.160156 315.40625 C 250.203125 315.148438 250.269531 314.898438 250.359375 314.652344 C 250.453125 314.410156 250.566406 314.175781 250.703125 313.953125 C 250.839844 313.730469 251 313.523438 251.175781 313.332031 C 251.355469 313.140625 251.550781 312.96875 251.761719 312.816406 C 251.972656 312.664062 252.199219 312.535156 252.433594 312.425781 C 252.671875 312.316406 252.917969 312.234375 253.171875 312.171875 C 253.425781 312.113281 253.683594 312.078125 253.945312 312.070312 C 254.207031 312.0625 254.464844 312.078125 254.722656 312.117188 C 254.980469 312.160156 255.230469 312.226562 255.476562 312.320312 C 255.71875 312.410156 255.953125 312.523438 256.175781 312.660156 C 256.398438 312.796875 256.605469 312.957031 256.796875 313.132812 C 256.988281 313.3125 257.160156 313.507812 257.3125 313.71875 C 257.464844 313.929688 257.59375 314.15625 257.703125 314.394531 C 257.8125 314.628906 257.894531 314.875 257.957031 315.128906 Z M 257.957031 315.128906 " fill-opacity="1" fill-rule="nonzero"/><path fill="#1086f4" d="M 199.957031 345.710938 C 199.957031 346.183594 199.867188 346.636719 199.683594 347.074219 C 199.503906 347.511719 199.246094 347.898438 198.914062 348.230469 C 198.578125 348.566406 198.191406 348.824219 197.753906 349.003906 C 197.320312 349.183594 196.863281 349.277344 196.390625 349.277344 C 195.917969 349.277344 195.464844 349.183594 195.027344 349.003906 C 194.589844 348.824219 194.203125 348.566406 193.871094 348.230469 C 193.535156 347.898438 193.277344 347.511719 193.097656 347.074219 C 192.914062 346.636719 192.824219 346.183594 192.824219 345.710938 C 192.824219 345.238281 192.914062 344.78125 193.097656 344.34375 C 193.277344 343.910156 193.535156 343.523438 193.871094 343.1875 C 194.203125 342.855469 194.589844 342.597656 195.027344 342.414062 C 195.464844 342.234375 195.917969 342.144531 196.390625 342.144531 C 196.863281 342.144531 197.320312 342.234375 197.753906 342.414062 C 198.191406 342.597656 198.578125 342.855469 198.914062 343.1875 C 199.246094 343.523438 199.503906 343.910156 199.683594 344.34375 C 199.867188 344.78125 199.957031 345.238281 199.957031 345.710938 Z M 199.957031 345.710938 " fill-opacity="1" fill-rule="nonzero"/><path fill="#1086f4" d="M 234.878906 256.167969 C 235.152344 256.28125 235.414062 256.421875 235.660156 256.585938 C 235.910156 256.753906 236.136719 256.941406 236.347656 257.152344 C 236.558594 257.363281 236.746094 257.589844 236.914062 257.839844 C 237.078125 258.085938 237.21875 258.347656 237.332031 258.621094 C 237.445312 258.898438 237.53125 259.179688 237.589844 259.472656 C 237.648438 259.765625 237.675781 260.058594 237.675781 260.359375 C 237.675781 260.65625 237.648438 260.949219 237.589844 261.242188 C 237.53125 261.535156 237.445312 261.816406 237.332031 262.09375 C 237.21875 262.367188 237.078125 262.628906 236.914062 262.878906 C 236.746094 263.125 236.558594 263.355469 236.347656 263.566406 C 236.136719 263.777344 235.910156 263.964844 235.660156 264.128906 C 235.414062 264.292969 235.152344 264.433594 234.878906 264.546875 C 234.601562 264.660156 234.320312 264.746094 234.027344 264.804688 C 233.734375 264.863281 233.4375 264.894531 233.140625 264.894531 C 232.84375 264.894531 232.550781 264.863281 232.257812 264.804688 C 231.964844 264.746094 231.679688 264.660156 231.40625 264.546875 C 231.132812 264.433594 230.871094 264.292969 230.621094 264.128906 C 230.375 263.964844 230.144531 263.777344 229.933594 263.566406 C 229.722656 263.355469 229.535156 263.125 229.371094 262.878906 C 229.207031 262.628906 229.066406 262.367188 228.953125 262.09375 C 228.835938 261.816406 228.75 261.535156 228.695312 261.242188 C 228.636719 260.949219 228.605469 260.65625 228.605469 260.359375 C 228.605469 260.058594 228.636719 259.765625 228.695312 259.472656 C 228.75 259.179688 228.835938 258.898438 228.953125 258.621094 C 229.066406 258.347656 229.207031 258.085938 229.371094 257.839844 C 229.535156 257.589844 229.722656 257.363281 229.933594 257.152344 C 230.144531 256.941406 230.375 256.753906 230.621094 256.585938 C 230.871094 256.421875 231.132812 256.28125 231.40625 256.167969 C 231.679688 256.054688 231.964844 255.96875 232.257812 255.910156 C 232.550781 255.851562 232.84375 255.824219 233.140625 255.824219 C 233.4375 255.824219 233.734375 255.851562 234.027344 255.910156 C 234.320312 255.96875 234.601562 256.054688 234.878906 256.167969 Z M 234.878906 256.167969 " fill-opacity="1" fill-rule="nonzero"/><path fill="#1086f4" d="M 330.019531 54.25 C 330.019531 54.660156 329.941406 55.054688 329.78125 55.433594 C 329.625 55.8125 329.402344 56.148438 329.113281 56.4375 C 328.820312 56.726562 328.488281 56.953125 328.109375 57.109375 C 327.726562 57.265625 327.332031 57.34375 326.921875 57.34375 C 326.511719 57.34375 326.117188 57.265625 325.738281 57.109375 C 325.359375 56.953125 325.023438 56.726562 324.734375 56.4375 C 324.445312 56.148438 324.21875 55.8125 324.0625 55.433594 C 323.90625 55.054688 323.828125 54.660156 323.828125 54.25 C 323.828125 53.839844 323.90625 53.445312 324.0625 53.0625 C 324.21875 52.683594 324.445312 52.351562 324.734375 52.058594 C 325.023438 51.769531 325.359375 51.546875 325.738281 51.390625 C 326.117188 51.230469 326.511719 51.152344 326.921875 51.152344 C 327.332031 51.152344 327.726562 51.230469 328.109375 51.390625 C 328.488281 51.546875 328.820312 51.769531 329.113281 52.058594 C 329.402344 52.351562 329.625 52.683594 329.78125 53.0625 C 329.941406 53.445312 330.019531 53.839844 330.019531 54.25 Z M 330.019531 54.25 " fill-opacity="1" fill-rule="nonzero"/><path fill="#1086f4" d="M 359.355469 108.777344 C 360.984375 108.777344 362.304688 107.457031 362.304688 105.832031 C 362.304688 104.203125 360.984375 102.882812 359.355469 102.882812 C 357.730469 102.882812 356.410156 104.203125 356.410156 105.832031 C 356.410156 107.457031 357.730469 108.777344 359.355469 108.777344 Z M 359.355469 108.777344 " fill-opacity="1" fill-rule="nonzero"/><path fill="#1086f4" d="M 244.484375 94.976562 C 244.84375 95.335938 245.121094 95.753906 245.316406 96.222656 C 245.511719 96.691406 245.609375 97.179688 245.609375 97.6875 C 245.609375 98.199219 245.511719 98.6875 245.316406 99.15625 C 245.121094 99.625 244.84375 100.039062 244.484375 100.402344 C 244.125 100.761719 243.710938 101.035156 243.242188 101.230469 C 242.773438 101.425781 242.28125 101.523438 241.773438 101.523438 C 241.265625 101.523438 240.777344 101.425781 240.308594 101.230469 C 239.835938 101.035156 239.421875 100.761719 239.0625 100.402344 C 238.703125 100.039062 238.425781 99.625 238.230469 99.15625 C 238.039062 98.6875 237.941406 98.199219 237.941406 97.6875 C 237.941406 97.179688 238.039062 96.691406 238.230469 96.222656 C 238.425781 95.753906 238.703125 95.335938 239.0625 94.976562 C 239.421875 94.617188 239.835938 94.339844 240.308594 94.148438 C 240.777344 93.953125 241.265625 93.855469 241.773438 93.855469 C 242.28125 93.855469 242.773438 93.953125 243.242188 94.148438 C 243.710938 94.339844 244.125 94.617188 244.484375 94.976562 Z M 244.484375 94.976562 " fill-opacity="1" fill-rule="nonzero"/><path fill="#1086f4" d="M 278.914062 104.746094 C 279.273438 105.105469 279.550781 105.519531 279.746094 105.992188 C 279.941406 106.460938 280.039062 106.949219 280.039062 107.457031 C 280.039062 107.964844 279.941406 108.457031 279.746094 108.925781 C 279.550781 109.394531 279.273438 109.808594 278.914062 110.167969 C 278.554688 110.527344 278.140625 110.804688 277.671875 111 C 277.203125 111.195312 276.710938 111.292969 276.203125 111.292969 C 275.695312 111.292969 275.207031 111.195312 274.738281 111 C 274.265625 110.804688 273.851562 110.527344 273.492188 110.167969 C 273.132812 109.808594 272.855469 109.394531 272.660156 108.925781 C 272.46875 108.457031 272.371094 107.964844 272.371094 107.457031 C 272.371094 106.949219 272.46875 106.460938 272.660156 105.992188 C 272.855469 105.519531 273.132812 105.105469 273.492188 104.746094 C 273.851562 104.386719 274.265625 104.109375 274.738281 103.914062 C 275.207031 103.722656 275.695312 103.625 276.203125 103.625 C 276.710938 103.625 277.203125 103.722656 277.671875 103.914062 C 278.140625 104.109375 278.554688 104.386719 278.914062 104.746094 Z M 278.914062 104.746094 " fill-opacity="1" fill-rule="nonzero"/><path fill="#1086f4" d="M 284.320312 136.070312 C 284.789062 136.261719 285.207031 136.539062 285.566406 136.898438 C 285.925781 137.257812 286.203125 137.675781 286.394531 138.144531 C 286.589844 138.613281 286.6875 139.101562 286.6875 139.609375 C 286.6875 140.121094 286.589844 140.609375 286.394531 141.078125 C 286.203125 141.546875 285.925781 141.960938 285.566406 142.320312 C 285.207031 142.679688 284.789062 142.957031 284.320312 143.152344 C 283.851562 143.347656 283.363281 143.445312 282.855469 143.445312 C 282.34375 143.445312 281.855469 143.347656 281.386719 143.152344 C 280.917969 142.957031 280.503906 142.679688 280.144531 142.320312 C 279.78125 141.960938 279.507812 141.546875 279.3125 141.078125 C 279.117188 140.609375 279.019531 140.121094 279.019531 139.609375 C 279.019531 139.101562 279.117188 138.613281 279.3125 138.144531 C 279.507812 137.675781 279.78125 137.257812 280.144531 136.898438 C 280.503906 136.539062 280.917969 136.261719 281.386719 136.070312 C 281.855469 135.875 282.34375 135.777344 282.855469 135.777344 C 283.363281 135.777344 283.851562 135.875 284.320312 136.070312 Z M 284.320312 136.070312 " fill-opacity="1" fill-rule="nonzero"/><path fill="#1086f4" d="M 283.761719 210.640625 C 283.878906 211.132812 283.898438 211.632812 283.816406 212.132812 C 283.734375 212.636719 283.558594 213.105469 283.292969 213.535156 C 283.027344 213.96875 282.6875 214.332031 282.273438 214.632812 C 281.859375 214.929688 281.40625 215.136719 280.914062 215.253906 C 280.417969 215.367188 279.917969 215.386719 279.417969 215.304688 C 278.914062 215.222656 278.449219 215.050781 278.015625 214.78125 C 277.582031 214.515625 277.21875 214.175781 276.921875 213.761719 C 276.625 213.351562 276.417969 212.894531 276.300781 212.402344 C 276.183594 211.90625 276.164062 211.40625 276.246094 210.90625 C 276.328125 210.402344 276.503906 209.9375 276.769531 209.503906 C 277.039062 209.070312 277.378906 208.707031 277.789062 208.410156 C 278.203125 208.113281 278.65625 207.90625 279.152344 207.789062 C 279.644531 207.671875 280.144531 207.65625 280.644531 207.734375 C 281.148438 207.816406 281.613281 207.992188 282.046875 208.257812 C 282.480469 208.527344 282.84375 208.867188 283.140625 209.277344 C 283.4375 209.691406 283.644531 210.144531 283.761719 210.640625 Z M 283.761719 210.640625 " fill-opacity="1" fill-rule="nonzero"/><path fill="#1086f4" d="M 241.773438 56.253906 C 240.117188 56.253906 238.773438 57.597656 238.773438 59.253906 C 238.773438 60.910156 240.117188 62.253906 241.773438 62.253906 C 243.429688 62.253906 244.773438 60.910156 244.773438 59.253906 C 244.773438 57.597656 243.429688 56.253906 241.773438 56.253906 Z M 241.773438 56.253906 " fill-opacity="1" fill-rule="nonzero"/><path fill="#1086f4" d="M 229.4375 6.671875 C 231.226562 6.671875 232.679688 5.21875 232.679688 3.429688 C 232.679688 1.636719 231.226562 0.183594 229.4375 0.183594 C 227.644531 0.183594 226.191406 1.636719 226.191406 3.429688 C 226.191406 5.21875 227.644531 6.671875 229.4375 6.671875 Z M 229.4375 6.671875 " fill-opacity="1" fill-rule="nonzero"/><path fill="#1086f4" d="M 364.316406 189.03125 C 366.6875 189.03125 368.605469 187.109375 368.605469 184.742188 C 368.605469 182.378906 366.679688 180.453125 364.316406 180.453125 C 361.953125 180.453125 360.027344 182.378906 360.027344 184.742188 C 360.027344 185.625 360.296875 186.445312 360.75 187.128906 L 341.34375 201.46875 C 340.746094 201.230469 340.105469 201.101562 339.425781 201.101562 C 338.53125 201.101562 337.6875 201.324219 336.949219 201.730469 L 300.695312 169.503906 C 301.808594 168.207031 302.484375 166.527344 302.484375 164.683594 C 302.484375 164.371094 302.464844 164.066406 302.425781 163.769531 L 340.507812 159.539062 C 341.015625 161.34375 342.667969 162.664062 344.632812 162.664062 C 347.003906 162.664062 348.921875 160.738281 348.921875 158.375 C 348.921875 156.480469 347.691406 154.867188 345.980469 154.300781 L 348.773438 136.625 C 348.773438 136.625 348.816406 136.625 348.832031 136.625 C 350.84375 136.625 352.480469 134.988281 352.480469 132.976562 C 352.480469 130.960938 350.84375 129.328125 348.832031 129.328125 C 346.816406 129.328125 345.183594 130.960938 345.183594 132.976562 C 345.183594 134.480469 346.09375 135.773438 347.390625 136.324219 L 344.585938 154.078125 C 343.804688 154.078125 343.074219 154.300781 342.4375 154.675781 L 308.902344 114.648438 C 310.585938 113.601562 311.71875 111.738281 311.71875 109.605469 C 311.71875 109.359375 311.699219 109.113281 311.667969 108.875 L 330.863281 108.875 C 330.863281 108.875 330.863281 108.902344 330.863281 108.925781 C 330.863281 110.941406 332.496094 112.574219 334.507812 112.574219 C 336.523438 112.574219 338.15625 110.941406 338.15625 108.925781 C 338.15625 106.914062 336.523438 105.277344 334.507812 105.277344 C 333.011719 105.277344 331.726562 106.179688 331.167969 107.472656 L 311.316406 107.472656 C 310.742188 105.996094 309.609375 104.808594 308.164062 104.175781 L 305.796875 74.5625 C 307.371094 73.90625 308.476562 72.359375 308.476562 70.546875 C 308.476562 68.144531 306.527344 66.199219 304.128906 66.199219 C 301.726562 66.199219 299.777344 68.144531 299.777344 70.546875 C 299.777344 70.757812 299.800781 70.957031 299.824219 71.152344 L 272.261719 79.835938 C 271.796875 77.082031 269.449219 74.980469 266.589844 74.898438 L 255.574219 40.121094 C 256.363281 39.375 256.945312 38.421875 257.238281 37.347656 L 273.015625 40.292969 C 273.117188 42.320312 274.773438 43.933594 276.824219 43.933594 C 278.875 43.933594 280.660156 42.21875 280.660156 40.097656 C 280.660156 37.980469 278.945312 36.265625 276.824219 36.265625 C 275.265625 36.265625 273.925781 37.203125 273.328125 38.539062 L 257.429688 35.570312 C 257.304688 32.40625 254.707031 29.878906 251.515625 29.878906 C 249.734375 29.878906 248.136719 30.671875 247.054688 31.914062 L 195.117188 13.664062 C 195.488281 12.679688 195.703125 11.617188 195.703125 10.507812 C 195.703125 5.613281 191.734375 1.644531 186.84375 1.644531 C 181.949219 1.644531 177.980469 5.613281 177.980469 10.507812 C 177.980469 11.007812 178.035156 11.5 178.117188 11.976562 L 125.003906 20.921875 C 123.953125 18.0625 121.214844 16.019531 117.992188 16.019531 C 113.867188 16.019531 110.519531 19.367188 110.519531 23.492188 C 110.519531 23.890625 110.554688 24.269531 110.617188 24.648438 L 39.488281 80.28125 C 38.222656 78.023438 35.804688 76.484375 33.023438 76.484375 C 28.925781 76.484375 25.617188 79.804688 25.617188 83.894531 C 25.617188 86.898438 27.40625 89.480469 29.980469 90.644531 L 4.511719 183.402344 C 1.855469 184.527344 0 187.160156 0 190.226562 C 0 193.292969 1.96875 196.058594 4.738281 197.132812 L 23.765625 272.457031 C 21.199219 274.414062 19.542969 277.488281 19.542969 280.960938 C 19.542969 286.871094 24.332031 291.660156 30.242188 291.660156 C 31.890625 291.660156 33.441406 291.277344 34.835938 290.609375 L 81.121094 338.058594 C 80.695312 338.996094 80.449219 340.035156 80.449219 341.128906 C 80.449219 345.226562 83.769531 348.539062 87.855469 348.539062 C 90.722656 348.539062 93.199219 346.910156 94.4375 344.539062 L 146.503906 362.941406 C 146.457031 363.34375 146.429688 363.746094 146.429688 364.15625 C 146.429688 370.042969 151.203125 374.816406 157.085938 374.816406 C 162.511719 374.816406 166.972656 370.765625 167.648438 365.53125 L 231.941406 357.183594 C 232.332031 359.859375 234.628906 361.917969 237.410156 361.917969 C 240.460938 361.917969 242.9375 359.441406 242.9375 356.390625 C 242.9375 356.144531 242.914062 355.90625 242.886719 355.675781 L 272.933594 351.007812 L 272.84375 349.605469 L 242.527344 354.3125 C 242.242188 353.617188 241.828125 352.992188 241.304688 352.46875 L 280.167969 305.78125 C 280.816406 305.964844 281.511719 306.070312 282.21875 306.070312 C 283.808594 306.070312 285.277344 305.5625 286.484375 304.714844 L 304.984375 310.589844 C 304.984375 310.589844 304.984375 310.597656 304.984375 310.605469 C 304.984375 313.113281 307.015625 315.140625 309.519531 315.140625 C 312.027344 315.140625 314.054688 313.113281 314.054688 310.605469 C 314.054688 308.101562 312.027344 306.070312 309.519531 306.070312 C 307.511719 306.070312 305.804688 307.375 305.214844 309.1875 L 287.714844 303.632812 C 288.910156 302.320312 289.640625 300.574219 289.640625 298.664062 C 289.640625 295.71875 287.917969 293.171875 285.417969 291.980469 L 286.730469 271.480469 C 287.222656 271.660156 287.753906 271.773438 288.304688 271.773438 C 290.8125 271.773438 292.839844 269.742188 292.839844 267.238281 C 292.839844 266.632812 292.722656 266.050781 292.503906 265.523438 L 321.351562 250.804688 C 321.804688 251.421875 322.410156 251.929688 323.109375 252.257812 L 316.621094 274.859375 C 314.210938 274.964844 312.28125 276.949219 312.28125 279.386719 C 312.28125 281.828125 314.308594 283.925781 316.816406 283.925781 C 319.320312 283.925781 321.351562 281.894531 321.351562 279.386719 C 321.351562 277.308594 319.949219 275.554688 318.03125 275.023438 L 324.453125 252.652344 C 324.640625 252.675781 324.828125 252.691406 325.011719 252.691406 C 326.691406 252.691406 328.160156 251.773438 328.945312 250.417969 L 344.929688 256.546875 C 344.921875 256.652344 344.898438 256.75 344.898438 256.855469 C 344.898438 258.84375 346.519531 260.464844 348.511719 260.464844 C 350.503906 260.464844 352.121094 258.84375 352.121094 256.855469 C 352.121094 254.863281 350.503906 253.242188 348.511719 253.242188 C 347.121094 253.242188 345.929688 254.042969 345.324219 255.191406 L 329.453125 249.101562 C 329.519531 248.796875 329.554688 248.476562 329.554688 248.15625 C 329.554688 247.558594 329.4375 246.984375 329.226562 246.460938 L 338.894531 240.710938 L 338.179688 239.503906 L 328.511719 245.253906 C 327.675781 244.253906 326.421875 243.613281 325.019531 243.613281 C 323.917969 243.613281 322.910156 244.007812 322.117188 244.664062 L 302.933594 227.792969 C 303.304688 227.074219 303.515625 226.261719 303.515625 225.40625 C 303.515625 224.636719 303.34375 223.914062 303.054688 223.257812 L 334.84375 208.761719 C 335.726562 210.402344 337.449219 211.523438 339.441406 211.523438 C 340.230469 211.523438 340.976562 211.34375 341.648438 211.023438 L 355.378906 227.039062 L 356.445312 226.128906 L 342.839844 210.253906 C 343.945312 209.300781 344.652344 207.890625 344.652344 206.316406 C 344.652344 204.742188 343.886719 203.199219 342.683594 202.242188 L 361.742188 188.167969 C 362.46875 188.71875 363.363281 189.046875 364.339844 189.046875 Z M 40.078125 86.160156 L 55.617188 92.8125 C 54.820312 94.210938 54.347656 95.820312 54.347656 97.542969 C 54.347656 100.050781 55.328125 102.332031 56.914062 104.027344 L 36.296875 134.265625 C 36.015625 134.167969 35.722656 134.101562 35.425781 134.070312 L 33.96875 91.238281 C 36.847656 90.867188 39.214844 88.851562 40.078125 86.152344 Z M 210.824219 243.84375 C 209.914062 243.046875 208.8125 242.472656 207.585938 242.195312 L 207.238281 199.15625 C 207.445312 199.164062 207.65625 199.183594 207.863281 199.183594 C 210.816406 199.183594 213.503906 198.082031 215.554688 196.269531 C 223.738281 205.136719 241.789062 224.726562 249.578125 233.355469 C 248.539062 234.386719 247.890625 235.804688 247.839844 237.371094 L 210.824219 243.828125 Z M 222.679688 296.539062 C 222.679688 297.253906 222.8125 297.941406 223.042969 298.582031 L 184.746094 302.921875 C 184.113281 301.410156 183.023438 300.125 181.667969 299.238281 L 204.371094 256.652344 C 204.886719 256.765625 205.417969 256.824219 205.960938 256.824219 C 207.191406 256.824219 208.355469 256.519531 209.378906 255.988281 L 225.167969 291.710938 C 223.664062 292.785156 222.679688 294.546875 222.679688 296.539062 Z M 118.484375 298.484375 C 118.410156 295.605469 116.539062 293.179688 113.933594 292.300781 L 129.488281 254.832031 C 130.226562 254.996094 130.996094 255.085938 131.777344 255.085938 C 133.449219 255.085938 135.023438 254.691406 136.425781 254.003906 L 171.238281 300.574219 C 170.035156 301.886719 169.269531 303.585938 169.132812 305.464844 L 118.484375 298.476562 Z M 79.367188 242.808594 C 80.570312 242.007812 81.53125 240.875 82.097656 239.53125 L 121.15625 245.121094 C 121.429688 249.425781 124.25 253.027344 128.128906 254.445312 L 112.539062 291.996094 C 112.285156 291.964844 112.03125 291.949219 111.777344 291.949219 C 110.355469 291.949219 109.035156 292.398438 107.945312 293.160156 L 79.359375 242.816406 Z M 35.753906 219.625 L 54.191406 183.429688 C 56.058594 185.027344 58.464844 185.988281 61.113281 185.988281 C 61.160156 185.988281 61.210938 185.988281 61.257812 185.988281 L 73.511719 229.449219 C 71.15625 230.03125 69.238281 231.730469 68.378906 233.96875 L 37.632812 223.847656 C 37.664062 223.628906 37.683594 223.414062 37.683594 223.195312 C 37.683594 221.703125 36.917969 220.390625 35.753906 219.632812 Z M 73.28125 96.246094 L 93.332031 88.175781 C 93.710938 89.515625 94.726562 90.582031 96.03125 91.054688 L 96.210938 121.59375 C 95.742188 121.847656 95.332031 122.1875 95.003906 122.605469 L 71.753906 102.875 C 72.78125 101.355469 73.386719 99.519531 73.386719 97.550781 C 73.386719 97.109375 73.347656 96.679688 73.289062 96.253906 Z M 250.6875 232.507812 C 242.878906 223.832031 224.765625 204.183594 216.554688 195.292969 C 218.394531 193.234375 219.523438 190.515625 219.523438 187.539062 C 219.523438 187.210938 219.5 186.890625 219.46875 186.570312 L 256.3125 183.96875 C 256.746094 185.804688 258.035156 187.316406 259.734375 188.046875 L 253.410156 231.664062 C 252.417969 231.722656 251.484375 232.019531 250.679688 232.515625 Z M 177.242188 297.933594 C 175.371094 297.933594 173.65625 298.574219 172.273438 299.632812 L 137.65625 253.324219 C 139.878906 251.847656 141.511719 249.558594 142.140625 246.878906 L 198.570312 249.9375 C 198.753906 252.660156 200.402344 254.964844 202.738281 256.101562 L 180.398438 298.574219 C 179.429688 298.164062 178.355469 297.941406 177.234375 297.941406 Z M 82.546875 238.09375 C 82.644531 237.625 82.6875 237.136719 82.6875 236.640625 C 82.6875 233.675781 80.941406 231.125 78.4375 229.941406 L 94.339844 203.742188 C 95.398438 204.324219 96.613281 204.660156 97.90625 204.660156 C 99.664062 204.660156 101.285156 204.042969 102.558594 203.011719 L 127.457031 234.707031 C 123.984375 236.25 121.5 239.59375 121.171875 243.554688 Z M 70.261719 180.78125 L 90.714844 195.484375 C 90.570312 196.050781 90.488281 196.640625 90.488281 197.253906 C 90.488281 199.542969 91.527344 201.585938 93.160156 202.953125 L 77.324219 229.53125 C 76.675781 229.34375 75.988281 229.238281 75.28125 229.238281 C 75.125 229.238281 74.972656 229.253906 74.816406 229.261719 L 62.71875 185.878906 C 65.925781 185.394531 68.664062 183.476562 70.261719 180.796875 Z M 97.554688 91.316406 C 99.628906 91.285156 101.351562 89.792969 101.738281 87.824219 L 129.75 93.292969 C 129.75 93.34375 129.742188 93.402344 129.742188 93.457031 C 129.742188 94.886719 130.25 96.207031 131.089844 97.238281 L 100.457031 122.046875 C 99.792969 121.488281 98.941406 121.136719 98 121.136719 C 97.957031 121.136719 97.910156 121.152344 97.867188 121.152344 L 97.5625 91.320312 Z M 161.839844 74.753906 C 161.839844 74.753906 161.855469 74.753906 161.867188 74.753906 L 176.398438 117.535156 C 176.144531 117.722656 175.90625 117.929688 175.699219 118.167969 L 141.125 96.027344 C 141.496094 95.246094 141.714844 94.378906 141.714844 93.457031 C 141.714844 92.417969 141.445312 91.441406 140.984375 90.589844 L 159.058594 73.539062 C 159.757812 74.285156 160.742188 74.761719 161.847656 74.761719 Z M 200.226562 80.632812 C 200.800781 80.632812 201.359375 80.582031 201.910156 80.507812 L 211.972656 126.902344 C 211.027344 127.300781 210.242188 128.007812 209.734375 128.894531 L 183.253906 121.300781 C 183.253906 121.210938 183.269531 121.128906 183.269531 121.039062 C 183.269531 119.472656 182.433594 118.109375 181.195312 117.347656 L 196.347656 80.007812 C 197.570312 80.410156 198.875 80.632812 200.234375 80.632812 Z M 244.929688 144.886719 L 214.851562 178.230469 C 213.234375 177.015625 211.300781 176.210938 209.183594 175.972656 L 214.011719 135.863281 C 215.933594 135.765625 217.546875 134.511719 218.164062 132.773438 L 243.542969 140.046875 C 243.488281 140.351562 243.460938 140.671875 243.460938 140.996094 C 243.460938 142.484375 244.019531 143.851562 244.929688 144.886719 Z M 197.324219 192.488281 L 170.535156 204.59375 C 169.746094 203.585938 168.515625 202.929688 167.128906 202.929688 C 166.425781 202.929688 165.761719 203.101562 165.171875 203.398438 L 140.257812 169.390625 C 142.035156 168.289062 143.511719 166.765625 144.539062 164.945312 L 197.183594 182.886719 C 196.554688 184.3125 196.203125 185.886719 196.203125 187.539062 C 196.203125 189.308594 196.605469 190.980469 197.316406 192.488281 Z M 134.171875 234.066406 L 133.449219 171.257812 C 133.539062 171.257812 133.621094 171.273438 133.703125 171.273438 C 135.605469 171.273438 137.402344 170.832031 139.019531 170.070312 L 164.039062 204.226562 C 163.269531 205.011719 162.792969 206.078125 162.792969 207.261719 C 162.792969 208.097656 163.03125 208.875 163.441406 209.539062 L 137.78125 235.648438 C 136.699219 234.90625 135.476562 234.371094 134.164062 234.066406 Z M 135.722656 99.445312 C 137.609375 99.445312 139.289062 98.574219 140.386719 97.207031 L 174.945312 119.339844 C 174.722656 119.863281 174.59375 120.4375 174.59375 121.039062 C 174.59375 121.851562 174.820312 122.605469 175.214844 123.257812 L 142.96875 150.484375 C 140.871094 148.148438 137.910156 146.609375 134.574219 146.378906 L 135.246094 99.414062 C 135.402344 99.429688 135.558594 99.4375 135.714844 99.4375 Z M 212.613281 135.71875 L 207.78125 175.898438 C 207.019531 175.898438 206.28125 175.980469 205.558594 176.121094 L 181.382812 124.613281 C 182.078125 124.136719 182.621094 123.464844 182.941406 122.675781 L 209.222656 130.207031 C 209.152344 130.527344 209.109375 130.863281 209.109375 131.207031 C 209.109375 133.378906 210.601562 135.207031 212.613281 135.71875 Z M 143.855469 151.578125 L 176.125 124.335938 C 176.878906 124.988281 177.863281 125.375 178.9375 125.375 C 179.347656 125.375 179.742188 125.316406 180.113281 125.210938 L 204.1875 176.492188 C 201.5 177.390625 199.253906 179.230469 197.839844 181.625 L 145.183594 163.679688 C 145.816406 162.179688 146.175781 160.53125 146.175781 158.800781 C 146.175781 156.097656 145.308594 153.617188 143.855469 151.570312 Z M 101.820312 124.964844 C 101.820312 124.105469 101.53125 123.332031 101.058594 122.6875 L 132.21875 98.304688 C 132.71875 98.664062 133.269531 98.953125 133.867188 99.148438 L 133.1875 146.363281 C 129.546875 146.515625 126.308594 148.214844 124.125 150.832031 L 100.582031 127.761719 C 101.335938 127.058594 101.8125 126.074219 101.8125 124.964844 Z M 124.863281 167.59375 L 102.820312 191.726562 C 101.507812 190.5625 99.792969 189.847656 97.90625 189.847656 C 94.9375 189.847656 92.382812 191.589844 91.199219 194.113281 L 70.910156 179.53125 C 71.460938 178.246094 71.765625 176.828125 71.765625 175.34375 C 71.765625 173.464844 71.273438 171.703125 70.425781 170.175781 L 121.78125 162.476562 C 122.386719 164.433594 123.453125 166.175781 124.855469 167.59375 Z M 131.777344 233.789062 C 130.753906 233.789062 129.777344 233.9375 128.847656 234.207031 L 103.566406 202.027344 C 104.65625 200.738281 105.3125 199.074219 105.3125 197.253906 C 105.3125 195.558594 104.738281 194 103.773438 192.753906 L 125.90625 168.527344 C 127.636719 169.914062 129.742188 170.839844 132.039062 171.152344 L 132.761719 233.839844 C 132.433594 233.8125 132.105469 233.789062 131.777344 233.789062 Z M 164.367188 210.597656 C 165.113281 211.21875 166.074219 211.589844 167.128906 211.589844 C 168.058594 211.589844 168.925781 211.292969 169.625 210.792969 L 201.34375 243.636719 C 199.859375 244.820312 198.835938 246.558594 198.597656 248.542969 L 142.378906 245.5 C 142.414062 245.15625 142.429688 244.808594 142.429688 244.449219 C 142.429688 241.300781 141.058594 238.480469 138.886719 236.527344 L 164.367188 210.605469 Z M 202.546875 242.851562 L 170.625 209.800781 C 171.148438 209.082031 171.460938 208.203125 171.460938 207.257812 C 171.460938 206.75 171.371094 206.269531 171.214844 205.824219 L 198.003906 193.71875 C 199.71875 196.453125 202.539062 198.425781 205.84375 199.007812 L 206.191406 242.03125 C 206.117188 242.03125 206.042969 242.015625 205.960938 242.015625 C 204.730469 242.015625 203.574219 242.324219 202.550781 242.851562 Z M 256.140625 182.566406 L 219.269531 185.175781 C 218.785156 182.820312 217.582031 180.730469 215.914062 179.132812 L 245.957031 145.828125 C 246.929688 146.515625 248.105469 146.917969 249.375 146.917969 C 249.835938 146.917969 250.285156 146.855469 250.71875 146.761719 L 260.042969 177.03125 C 257.773438 177.859375 256.148438 180.023438 256.132812 182.574219 Z M 243.914062 138.6875 L 218.425781 131.378906 C 218.425781 131.320312 218.433594 131.261719 218.433594 131.199219 C 218.433594 128.625 216.34375 126.539062 213.769531 126.539062 C 213.621094 126.539062 213.472656 126.546875 213.324219 126.558594 L 203.277344 80.238281 C 204.378906 79.960938 205.417969 79.542969 206.378906 78.992188 L 246.464844 135.824219 C 245.324219 136.464844 244.421875 137.472656 243.90625 138.6875 Z M 195.019531 79.484375 L 179.875 116.8125 C 179.570312 116.742188 179.25 116.699219 178.921875 116.699219 C 178.472656 116.699219 178.039062 116.765625 177.636719 116.894531 L 163.234375 74.472656 C 164.652344 73.910156 165.660156 72.539062 165.660156 70.921875 C 165.660156 70.816406 165.636719 70.710938 165.628906 70.609375 L 187.886719 69.867188 C 188.476562 74.152344 191.238281 77.738281 195.027344 79.476562 Z M 158.003906 70.929688 C 158.003906 71.457031 158.109375 71.957031 158.304688 72.421875 L 140.199219 89.503906 C 139.101562 88.257812 137.5 87.464844 135.707031 87.464844 C 135.664062 87.464844 135.625 87.464844 135.582031 87.464844 L 120.878906 30.378906 C 121.582031 30.089844 122.222656 29.691406 122.789062 29.207031 L 159.140625 68.199219 C 158.4375 68.890625 157.996094 69.855469 157.996094 70.914062 Z M 117.992188 30.96875 C 118.566406 30.96875 119.125 30.894531 119.664062 30.773438 L 134.171875 87.675781 C 132.105469 88.21875 130.488281 89.835938 129.933594 91.902344 L 101.761719 86.40625 C 101.558594 84.921875 100.613281 83.683594 99.308594 83.066406 L 117.105469 30.910156 C 117.394531 30.945312 117.6875 30.96875 117.984375 30.96875 Z M 95.875 128.140625 C 96.480469 128.542969 97.203125 128.777344 97.980469 128.777344 C 98.464844 128.777344 98.917969 128.679688 99.34375 128.515625 L 123.265625 151.96875 C 121.976562 153.929688 121.222656 156.277344 121.222656 158.800781 C 121.222656 159.582031 121.304688 160.351562 121.445312 161.097656 L 69.558594 168.878906 C 69.105469 168.28125 68.589844 167.730469 68.015625 167.242188 Z M 261.085938 188.4375 C 261.40625 188.488281 261.726562 188.527344 262.0625 188.527344 C 265.339844 188.527344 267.992188 185.871094 267.992188 182.59375 C 267.992188 182.050781 267.910156 181.519531 267.777344 181.019531 L 289.253906 169.265625 C 289.746094 169.882812 290.328125 170.429688 290.992188 170.871094 L 254.941406 230.828125 L 261.085938 188.445312 Z M 267.242188 179.707031 C 266.226562 177.894531 264.285156 176.664062 262.0625 176.664062 C 261.839844 176.664062 261.625 176.679688 261.414062 176.703125 L 252.046875 146.28125 C 253.066406 145.769531 253.910156 144.96875 254.492188 143.992188 L 289.820312 159.464844 C 288.492188 160.804688 287.671875 162.648438 287.671875 164.679688 C 287.671875 165.902344 287.976562 167.058594 288.5 168.078125 L 267.246094 179.707031 Z M 291.035156 158.464844 L 255.050781 142.703125 C 255.214844 142.15625 255.304688 141.582031 255.304688 140.988281 C 255.304688 140.179688 255.140625 139.414062 254.851562 138.710938 L 300.84375 112.863281 C 301.398438 113.707031 302.164062 114.394531 303.058594 114.863281 L 293.378906 157.472656 C 292.527344 157.667969 291.738281 158.007812 291.027344 158.472656 Z M 300.226562 111.605469 L 254.164062 137.488281 C 253.417969 136.464844 252.359375 135.691406 251.121094 135.308594 L 265.449219 86.644531 C 265.769531 86.699219 266.097656 86.734375 266.433594 86.734375 C 268.074219 86.734375 269.566406 86.0625 270.640625 84.980469 L 300.089844 108 C 299.949219 108.507812 299.867188 109.039062 299.867188 109.589844 C 299.867188 110.300781 299.996094 110.96875 300.226562 111.597656 Z M 264.101562 86.257812 L 249.726562 135.070312 C 249.613281 135.070312 249.496094 135.054688 249.382812 135.054688 C 248.839844 135.054688 248.308594 135.136719 247.800781 135.273438 L 207.558594 78.214844 C 209.726562 76.628906 211.371094 74.367188 212.152344 71.734375 L 260.519531 80.453125 C 260.519531 80.574219 260.503906 80.683594 260.503906 80.804688 C 260.503906 83.25 261.980469 85.347656 264.101562 86.257812 Z M 187.761719 68.453125 L 165.195312 69.136719 C 164.554688 67.929688 163.292969 67.09375 161.832031 67.09375 C 161.324219 67.09375 160.839844 67.199219 160.398438 67.378906 L 123.601562 28.417969 C 124.222656 27.714844 124.707031 26.902344 125.027344 26.007812 L 188.679688 63.4375 C 188.082031 64.894531 187.746094 66.480469 187.746094 68.152344 C 187.746094 68.25 187.761719 68.347656 187.761719 68.453125 Z M 115.382812 30.484375 L 97.90625 82.667969 C 97.761719 82.65625 97.621094 82.648438 97.480469 82.648438 C 95.085938 82.648438 93.144531 84.585938 93.144531 86.980469 C 93.144531 86.996094 93.144531 87.019531 93.144531 87.03125 L 72.988281 94.941406 C 72.496094 93.21875 71.535156 91.695312 70.253906 90.523438 L 114.023438 29.820312 C 114.449219 30.089844 114.90625 30.3125 115.375 30.492188 Z M 70.855469 103.964844 L 94.332031 123.890625 C 94.234375 124.226562 94.160156 124.582031 94.160156 124.949219 C 94.160156 125.769531 94.421875 126.523438 94.859375 127.140625 L 66.894531 166.394531 C 65.417969 165.4375 63.695312 164.835938 61.839844 164.707031 L 65.15625 106.949219 C 67.402344 106.644531 69.386719 105.554688 70.847656 103.957031 Z M 60.4375 164.707031 C 57.742188 164.871094 55.320312 166.027344 53.527344 167.832031 L 37.765625 141.226562 C 38.585938 140.472656 39.109375 139.390625 39.109375 138.183594 C 39.109375 136.863281 38.492188 135.691406 37.527344 134.9375 L 57.945312 104.996094 C 59.539062 106.261719 61.554688 107.03125 63.742188 107.054688 L 60.421875 164.714844 Z M 34.976562 142.320312 C 35.550781 142.320312 36.097656 142.203125 36.597656 141.992188 L 52.574219 168.96875 C 51.246094 170.742188 50.449219 172.941406 50.449219 175.335938 C 50.449219 175.628906 50.46875 175.910156 50.492188 176.195312 L 14.195312 187.257812 C 13.695312 186.125 12.925781 185.144531 11.964844 184.394531 L 33.417969 142.015625 C 33.902344 142.21875 34.433594 142.320312 34.984375 142.320312 Z M 14.628906 188.585938 L 50.695312 177.597656 C 51.113281 179.523438 52.050781 181.253906 53.355469 182.632812 L 34.492188 219.070312 C 34.148438 218.980469 33.785156 218.929688 33.410156 218.929688 C 32.695312 218.929688 32.023438 219.109375 31.425781 219.421875 L 12.988281 195.089844 C 14.121094 193.785156 14.8125 192.089844 14.8125 190.226562 C 14.8125 189.660156 14.746094 189.113281 14.628906 188.585938 Z M 34.222656 227.367188 C 35.515625 227.121094 36.597656 226.285156 37.183594 225.160156 L 67.984375 235.296875 C 67.910156 235.730469 67.859375 236.167969 67.859375 236.625 C 67.859375 238.832031 68.828125 240.800781 70.355469 242.160156 L 38.9375 274.742188 C 37.347656 272.519531 34.933594 270.929688 32.136719 270.429688 L 34.222656 227.359375 Z M 39.699219 275.980469 L 71.511719 243 C 72.617188 243.652344 73.898438 244.03125 75.273438 244.03125 C 76.300781 244.03125 77.285156 243.820312 78.175781 243.441406 L 106.960938 293.988281 C 106.394531 294.574219 105.929688 295.261719 105.601562 296.023438 L 40.757812 282.789062 C 40.863281 282.191406 40.929688 281.582031 40.929688 280.953125 C 40.929688 279.15625 40.480469 277.472656 39.699219 275.980469 Z M 118.367188 299.894531 L 169.140625 306.890625 C 169.460938 310.046875 171.589844 312.65625 174.46875 313.703125 L 163.277344 355.488281 C 161.535156 354.234375 159.390625 353.488281 157.078125 353.488281 C 154.769531 353.488281 152.523438 354.273438 150.753906 355.585938 L 113.859375 305.019531 C 116.164062 304.265625 117.917969 302.304688 118.367188 299.886719 Z M 164.449219 356.472656 L 175.808594 314.066406 C 176.273438 314.148438 176.742188 314.203125 177.234375 314.203125 C 179.503906 314.203125 181.554688 313.269531 183.03125 311.769531 L 232.546875 353.730469 C 232.210938 354.347656 231.988281 355.035156 231.90625 355.765625 L 167.730469 364.082031 C 167.710938 361.089844 166.457031 358.398438 164.449219 356.472656 Z M 233.34375 352.632812 L 183.910156 310.71875 C 184.835938 309.398438 185.382812 307.792969 185.382812 306.0625 C 185.382812 305.453125 185.304688 304.855469 185.179688 304.28125 L 223.738281 299.910156 C 224.691406 301.289062 226.214844 302.238281 227.964844 302.429688 L 235.804688 351.09375 C 234.851562 351.386719 234.015625 351.921875 233.351562 352.632812 Z M 226.394531 291.039062 L 210.5625 255.21875 C 212.273438 253.863281 213.367188 251.773438 213.367188 249.425781 C 213.367188 247.796875 212.839844 246.296875 211.953125 245.074219 L 247.957031 238.785156 C 248.316406 240.488281 249.398438 241.921875 250.875 242.746094 L 232.375 291.964844 C 231.351562 291.121094 230.039062 290.613281 228.609375 290.613281 C 227.824219 290.613281 227.085938 290.773438 226.398438 291.039062 Z M 233.425781 293.113281 L 252.164062 243.277344 C 252.671875 243.417969 253.203125 243.5 253.753906 243.5 C 255.222656 243.5 256.558594 242.964844 257.59375 242.085938 L 284.933594 264.195312 C 284.203125 265 283.753906 266.066406 283.753906 267.238281 C 283.753906 267.59375 283.800781 267.945312 283.882812 268.28125 L 233.941406 293.988281 C 233.792969 293.679688 233.628906 293.390625 233.433594 293.113281 Z M 288.285156 262.695312 C 287.476562 262.695312 286.71875 262.910156 286.058594 263.277344 L 258.535156 241.046875 C 259.242188 240.070312 259.667969 238.867188 259.667969 237.570312 C 259.667969 237.101562 259.609375 236.644531 259.503906 236.207031 L 293.265625 226.777344 C 293.707031 228.382812 294.890625 229.671875 296.429688 230.253906 L 289.117188 262.769531 C 288.851562 262.714844 288.566406 262.6875 288.285156 262.6875 Z M 293.078125 225.375 L 259.027344 234.886719 C 258.363281 233.582031 257.230469 232.558594 255.851562 232.035156 L 292.238281 171.527344 C 293.011719 171.847656 293.855469 172.03125 294.726562 172.070312 L 297.347656 220.273438 C 294.929688 220.710938 293.085938 222.824219 293.078125 225.375 Z M 341.371094 155.570312 C 340.773438 156.261719 340.402344 157.152344 340.351562 158.128906 L 302.121094 162.378906 C 301.152344 159.410156 298.367188 157.261719 295.078125 157.261719 C 295.011719 157.261719 294.945312 157.269531 294.878906 157.269531 L 304.402344 115.347656 C 304.851562 115.460938 305.320312 115.519531 305.804688 115.519531 C 306.433594 115.519531 307.035156 115.421875 307.59375 115.246094 L 341.378906 155.5625 Z M 304.132812 74.882812 C 304.230469 74.882812 304.328125 74.875 304.417969 74.867188 L 306.722656 103.75 C 306.417969 103.703125 306.109375 103.667969 305.796875 103.667969 C 303.589844 103.667969 301.671875 104.875 300.652344 106.660156 L 271.5 83.878906 C 271.96875 83.109375 272.269531 82.222656 272.34375 81.273438 L 300.253906 72.480469 C 300.972656 73.90625 302.433594 74.882812 304.132812 74.882812 Z M 265.167969 75.023438 C 263.0625 75.476562 261.382812 77.042969 260.757812 79.082031 L 212.464844 70.375 C 212.59375 69.660156 212.675781 68.921875 212.675781 68.167969 C 212.675781 65.355469 211.734375 62.773438 210.160156 60.6875 L 246.765625 39.335938 C 247.847656 40.792969 249.570312 41.730469 251.515625 41.730469 C 252.554688 41.730469 253.53125 41.464844 254.378906 40.992188 Z M 246.242188 33.117188 C 245.832031 33.921875 245.59375 34.839844 245.59375 35.808594 C 245.59375 36.628906 245.765625 37.414062 246.0625 38.128906 L 209.25 59.597656 C 206.976562 57.203125 203.777344 55.695312 200.210938 55.695312 C 199.234375 55.695312 198.285156 55.824219 197.367188 56.03125 L 188.835938 19.136719 C 191.257812 18.578125 193.296875 17.027344 194.511719 14.9375 Z M 178.449219 13.347656 C 179.636719 16.855469 182.941406 19.375 186.84375 19.375 C 187.042969 19.375 187.246094 19.363281 187.445312 19.347656 L 196.027344 56.441406 C 193.140625 57.472656 190.738281 59.53125 189.28125 62.1875 L 125.378906 24.613281 C 125.429688 24.246094 125.46875 23.882812 125.46875 23.5 C 125.46875 23.082031 125.421875 22.679688 125.363281 22.285156 Z M 111.003906 26.132812 C 111.414062 27.222656 112.070312 28.191406 112.914062 28.96875 L 69.15625 89.652344 C 67.640625 88.628906 65.8125 88.039062 63.851562 88.039062 C 60.839844 88.039062 58.152344 89.449219 56.40625 91.644531 L 40.363281 84.773438 C 40.394531 84.488281 40.414062 84.207031 40.414062 83.914062 C 40.414062 83.117188 40.289062 82.347656 40.050781 81.625 L 110.996094 26.132812 Z M 31.308594 91.097656 C 31.71875 91.195312 32.136719 91.253906 32.566406 91.285156 L 34.023438 134.160156 C 32.203125 134.59375 30.851562 136.226562 30.851562 138.183594 C 30.851562 139.40625 31.390625 140.503906 32.230469 141.261719 L 10.777344 183.625 C 9.773438 183.109375 8.628906 182.8125 7.414062 182.8125 C 6.96875 182.8125 6.527344 182.855469 6.101562 182.929688 Z M 6.289062 197.535156 C 6.652344 197.597656 7.027344 197.632812 7.414062 197.632812 C 9.136719 197.632812 10.726562 197.035156 11.988281 196.050781 L 30.328125 220.257812 C 29.605469 221.019531 29.160156 222.046875 29.160156 223.183594 C 29.160156 225.332031 30.746094 227.097656 32.804688 227.398438 L 30.261719 270.257812 C 30.261719 270.257812 30.246094 270.257812 30.242188 270.257812 C 28.339844 270.257812 26.554688 270.757812 25.003906 271.628906 Z M 36.101562 289.890625 C 38.148438 288.546875 39.699219 286.535156 40.445312 284.148438 L 105.199219 297.367188 C 105.117188 297.785156 105.074219 298.207031 105.074219 298.648438 C 105.074219 300.582031 105.894531 302.320312 107.207031 303.542969 L 89.550781 333.917969 C 89.003906 333.789062 88.4375 333.714844 87.855469 333.714844 C 85.378906 333.714844 83.203125 334.929688 81.851562 336.796875 Z M 94.957031 343.234375 C 95.160156 342.5625 95.265625 341.859375 95.265625 341.121094 C 95.265625 338.117188 93.472656 335.535156 90.898438 334.371094 L 108.324219 304.390625 C 109.332031 304.996094 110.511719 305.355469 111.777344 305.355469 C 111.964844 305.355469 112.144531 305.339844 112.324219 305.324219 L 149.703125 356.472656 C 148.292969 357.832031 147.257812 359.578125 146.761719 361.539062 Z M 240.140625 351.582031 C 239.335938 351.117188 238.394531 350.847656 237.402344 350.847656 C 237.328125 350.847656 237.246094 350.855469 237.171875 350.863281 L 229.363281 302.410156 C 232.25 302.042969 234.484375 299.597656 234.53125 296.621094 L 274.820312 298.945312 C 274.921875 301.640625 276.460938 303.96875 278.699219 305.175781 Z M 284.097656 291.488281 C 283.496094 291.332031 282.867188 291.234375 282.210938 291.234375 C 278.496094 291.234375 275.429688 293.972656 274.894531 297.539062 L 234.382812 295.203125 C 234.367188 295.136719 234.351562 295.074219 234.328125 295.015625 L 284.492188 269.683594 C 284.808594 270.160156 285.210938 270.578125 285.671875 270.914062 L 284.089844 291.488281 Z M 321.1875 245.695312 C 320.738281 246.394531 320.476562 247.230469 320.476562 248.125 C 320.476562 248.617188 320.558594 249.097656 320.710938 249.542969 L 291.820312 264.359375 C 291.4375 263.894531 290.976562 263.507812 290.445312 263.214844 L 297.601562 230.53125 C 297.832031 230.558594 298.070312 230.582031 298.308594 230.582031 C 299.816406 230.582031 301.164062 229.941406 302.121094 228.917969 L 321.195312 245.695312 Z M 302.300781 222.039062 C 301.433594 221.011719 300.179688 220.316406 298.765625 220.191406 L 296.144531 171.980469 C 297.472656 171.785156 298.6875 171.25 299.695312 170.453125 L 335.808594 202.550781 C 334.828125 203.496094 334.226562 204.816406 334.226562 206.277344 C 334.226562 206.667969 334.269531 207.046875 334.351562 207.414062 L 302.300781 222.027344 Z M 302.300781 222.039062 " fill-opacity="1" fill-rule="nonzero"/><g clip-path="url(#b4adb42f1c)"><path fill="#1086f4" d="M 371.015625 208.800781 C 371.015625 209.207031 370.9375 209.601562 370.78125 209.976562 C 370.625 210.351562 370.402344 210.683594 370.117188 210.972656 C 369.828125 211.261719 369.496094 211.484375 369.117188 211.640625 C 368.742188 211.796875 368.351562 211.875 367.941406 211.875 C 367.535156 211.875 367.144531 211.796875 366.765625 211.640625 C 366.390625 211.484375 366.058594 211.261719 365.769531 210.972656 C 365.480469 210.683594 365.257812 210.351562 365.101562 209.976562 C 364.945312 209.601562 364.867188 209.207031 364.867188 208.800781 C 364.867188 208.394531 364.945312 208 365.101562 207.625 C 365.257812 207.246094 365.480469 206.914062 365.769531 206.628906 C 366.058594 206.339844 366.390625 206.117188 366.765625 205.960938 C 367.144531 205.804688 367.535156 205.726562 367.941406 205.726562 C 368.351562 205.726562 368.742188 205.804688 369.117188 205.960938 C 369.496094 206.117188 369.828125 206.339844 370.117188 206.628906 C 370.402344 206.914062 370.625 207.246094 370.78125 207.625 C 370.9375 208 371.015625 208.394531 371.015625 208.800781 Z M 371.015625 208.800781 " fill-opacity="1" fill-rule="nonzero"/></g><path fill="#1086f4" d="M 316.695312 199.578125 C 316.808594 200.046875 316.824219 200.519531 316.746094 201 C 316.667969 201.476562 316.503906 201.921875 316.25 202.332031 C 315.996094 202.742188 315.671875 203.089844 315.277344 203.375 C 314.886719 203.65625 314.453125 203.851562 313.984375 203.964844 C 313.511719 204.074219 313.039062 204.09375 312.5625 204.015625 C 312.082031 203.9375 311.640625 203.769531 311.226562 203.515625 C 310.816406 203.261719 310.46875 202.9375 310.1875 202.546875 C 309.902344 202.15625 309.707031 201.722656 309.59375 201.253906 C 309.484375 200.78125 309.46875 200.308594 309.546875 199.828125 C 309.621094 199.351562 309.789062 198.90625 310.042969 198.496094 C 310.296875 198.085938 310.621094 197.738281 311.011719 197.457031 C 311.40625 197.171875 311.835938 196.976562 312.308594 196.863281 C 312.777344 196.753906 313.253906 196.738281 313.730469 196.8125 C 314.207031 196.890625 314.652344 197.058594 315.0625 197.3125 C 315.476562 197.566406 315.820312 197.890625 316.105469 198.28125 C 316.386719 198.675781 316.585938 199.105469 316.695312 199.578125 Z M 316.695312 199.578125 " fill-opacity="1" fill-rule="nonzero"/><path fill="#1086f4" d="M 332.03125 226.425781 C 332.03125 227.636719 333.015625 228.621094 334.226562 228.621094 C 335.433594 228.621094 336.417969 227.636719 336.417969 226.425781 C 336.417969 225.21875 335.433594 224.234375 334.226562 224.234375 C 333.015625 224.234375 332.03125 225.21875 332.03125 226.425781 Z M 332.03125 226.425781 " fill-opacity="1" fill-rule="nonzero"/><path fill="#1086f4" d="M 276.996094 239.816406 C 275.789062 239.816406 274.804688 240.800781 274.804688 242.007812 C 274.804688 243.21875 275.789062 244.203125 276.996094 244.203125 C 278.207031 244.203125 279.191406 243.21875 279.191406 242.007812 C 279.191406 240.800781 278.207031 239.816406 276.996094 239.816406 Z M 276.996094 239.816406 " fill-opacity="1" fill-rule="nonzero"/><path fill="#1086f4" d="M 268.8125 159.917969 C 267.605469 159.917969 266.621094 160.902344 266.621094 162.113281 C 266.621094 163.320312 267.605469 164.304688 268.8125 164.304688 C 270.023438 164.304688 271.007812 163.320312 271.007812 162.113281 C 271.007812 160.902344 270.023438 159.917969 268.8125 159.917969 Z M 268.8125 159.917969 " fill-opacity="1" fill-rule="nonzero"/><path fill="#1086f4" d="M 256.289062 265.027344 C 255.082031 265.027344 254.097656 266.015625 254.097656 267.222656 C 254.097656 268.429688 255.082031 269.414062 256.289062 269.414062 C 257.5 269.414062 258.484375 268.429688 258.484375 267.222656 C 258.484375 266.015625 257.5 265.027344 256.289062 265.027344 Z M 256.289062 265.027344 " fill-opacity="1" fill-rule="nonzero"/><path fill="#1086f4" d="M 218.984375 315.953125 C 217.777344 315.953125 216.792969 316.9375 216.792969 318.148438 C 216.792969 319.355469 217.777344 320.339844 218.984375 320.339844 C 220.195312 320.339844 221.179688 319.355469 221.179688 318.148438 C 221.179688 316.9375 220.195312 315.953125 218.984375 315.953125 Z M 218.984375 315.953125 " fill-opacity="1" fill-rule="nonzero"/><path fill="#1086f4" d="M 342.070312 180.269531 C 342.179688 180.742188 342.199219 181.214844 342.121094 181.695312 C 342.042969 182.171875 341.875 182.617188 341.621094 183.027344 C 341.367188 183.4375 341.042969 183.785156 340.652344 184.070312 C 340.257812 184.351562 339.828125 184.546875 339.355469 184.660156 C 338.886719 184.769531 338.414062 184.789062 337.933594 184.710938 C 337.457031 184.632812 337.011719 184.464844 336.601562 184.210938 C 336.191406 183.957031 335.84375 183.632812 335.558594 183.242188 C 335.277344 182.847656 335.082031 182.417969 334.96875 181.945312 C 334.859375 181.476562 334.839844 181.003906 334.917969 180.523438 C 334.996094 180.046875 335.164062 179.601562 335.417969 179.191406 C 335.671875 178.78125 335.996094 178.433594 336.386719 178.148438 C 336.777344 177.867188 337.210938 177.671875 337.679688 177.558594 C 338.152344 177.449219 338.625 177.429688 339.105469 177.507812 C 339.582031 177.585938 340.027344 177.753906 340.4375 178.007812 C 340.847656 178.261719 341.195312 178.585938 341.476562 178.976562 C 341.761719 179.367188 341.957031 179.800781 342.070312 180.269531 Z M 342.070312 180.269531 " fill-opacity="1" fill-rule="nonzero"/><path fill="#1086f4" d="M 316.351562 142.441406 C 316.460938 142.914062 316.476562 143.386719 316.402344 143.863281 C 316.324219 144.34375 316.15625 144.785156 315.902344 145.199219 C 315.648438 145.609375 315.324219 145.957031 314.933594 146.238281 C 314.539062 146.523438 314.109375 146.71875 313.636719 146.832031 C 313.167969 146.941406 312.691406 146.957031 312.214844 146.878906 C 311.738281 146.804688 311.292969 146.636719 310.882812 146.382812 C 310.472656 146.128906 310.125 145.804688 309.839844 145.414062 C 309.558594 145.019531 309.359375 144.589844 309.25 144.117188 C 309.140625 143.648438 309.121094 143.171875 309.199219 142.695312 C 309.277344 142.21875 309.441406 141.773438 309.699219 141.363281 C 309.953125 140.949219 310.273438 140.605469 310.667969 140.320312 C 311.058594 140.039062 311.492188 139.839844 311.960938 139.730469 C 312.433594 139.617188 312.90625 139.601562 313.382812 139.679688 C 313.863281 139.757812 314.304688 139.921875 314.71875 140.175781 C 315.128906 140.429688 315.476562 140.753906 315.757812 141.148438 C 316.042969 141.539062 316.238281 141.972656 316.351562 142.441406 Z M 316.351562 142.441406 " fill-opacity="1" fill-rule="nonzero"/><path fill="#1086f4" d="M 214.113281 34.972656 C 214.226562 35.441406 214.242188 35.917969 214.164062 36.394531 C 214.085938 36.871094 213.921875 37.316406 213.667969 37.726562 C 213.414062 38.140625 213.089844 38.484375 212.695312 38.769531 C 212.304688 39.050781 211.871094 39.25 211.402344 39.359375 C 210.929688 39.472656 210.457031 39.488281 209.980469 39.410156 C 209.503906 39.332031 209.058594 39.167969 208.644531 38.914062 C 208.234375 38.660156 207.886719 38.335938 207.605469 37.941406 C 207.320312 37.550781 207.125 37.117188 207.015625 36.648438 C 206.902344 36.175781 206.886719 35.703125 206.964844 35.226562 C 207.039062 34.746094 207.207031 34.304688 207.460938 33.890625 C 207.714844 33.480469 208.039062 33.132812 208.429688 32.851562 C 208.824219 32.566406 209.253906 32.371094 209.726562 32.257812 C 210.195312 32.148438 210.671875 32.132812 211.148438 32.210938 C 211.625 32.285156 212.070312 32.453125 212.480469 32.707031 C 212.894531 32.960938 213.242188 33.285156 213.523438 33.675781 C 213.804688 34.070312 214.003906 34.5 214.113281 34.972656 Z M 214.113281 34.972656 " fill-opacity="1" fill-rule="nonzero"/><path fill="#1086f4" d="M 174.214844 34.96875 C 174.324219 35.441406 174.34375 35.914062 174.265625 36.390625 C 174.1875 36.871094 174.019531 37.3125 173.765625 37.726562 C 173.511719 38.136719 173.1875 38.484375 172.796875 38.765625 C 172.402344 39.050781 171.972656 39.246094 171.5 39.359375 C 171.03125 39.46875 170.558594 39.484375 170.078125 39.410156 C 169.601562 39.332031 169.15625 39.164062 168.746094 38.910156 C 168.335938 38.65625 167.988281 38.332031 167.703125 37.941406 C 167.421875 37.546875 167.226562 37.117188 167.113281 36.644531 C 167.003906 36.175781 166.984375 35.699219 167.0625 35.222656 C 167.140625 34.746094 167.308594 34.300781 167.5625 33.890625 C 167.816406 33.476562 168.140625 33.132812 168.53125 32.847656 C 168.921875 32.566406 169.355469 32.367188 169.824219 32.257812 C 170.296875 32.148438 170.769531 32.128906 171.25 32.207031 C 171.726562 32.285156 172.171875 32.449219 172.582031 32.703125 C 172.992188 32.960938 173.339844 33.28125 173.625 33.675781 C 173.90625 34.066406 174.101562 34.5 174.214844 34.96875 Z M 174.214844 34.96875 " fill-opacity="1" fill-rule="nonzero"/><g clip-path="url(#160d8a4450)"><path fill="#1086f4" d="M 371.492188 148.152344 C 371.601562 148.625 371.621094 149.097656 371.542969 149.574219 C 371.464844 150.050781 371.300781 150.496094 371.046875 150.90625 C 370.789062 151.320312 370.46875 151.667969 370.074219 151.949219 C 369.683594 152.230469 369.25 152.429688 368.78125 152.539062 C 368.308594 152.652344 367.835938 152.667969 367.359375 152.589844 C 366.878906 152.511719 366.4375 152.347656 366.023438 152.09375 C 365.613281 151.839844 365.265625 151.515625 364.984375 151.121094 C 364.699219 150.730469 364.503906 150.300781 364.390625 149.828125 C 364.28125 149.355469 364.265625 148.882812 364.339844 148.40625 C 364.417969 147.929688 364.585938 147.484375 364.839844 147.074219 C 365.09375 146.660156 365.417969 146.3125 365.808594 146.03125 C 366.203125 145.75 366.632812 145.550781 367.105469 145.441406 C 367.574219 145.328125 368.050781 145.3125 368.527344 145.390625 C 369.003906 145.46875 369.449219 145.632812 369.859375 145.886719 C 370.269531 146.140625 370.617188 146.464844 370.902344 146.859375 C 371.183594 147.25 371.382812 147.679688 371.492188 148.152344 Z M 371.492188 148.152344 " fill-opacity="1" fill-rule="nonzero"/></g><path fill="#1086f4" d="M 328.832031 86.0625 C 329.699219 87.195312 331.324219 87.40625 332.449219 86.539062 C 333.578125 85.675781 333.792969 84.050781 332.929688 82.921875 C 332.0625 81.789062 330.4375 81.582031 329.308594 82.445312 C 328.175781 83.3125 327.96875 84.9375 328.832031 86.0625 Z M 328.832031 86.0625 " fill-opacity="1" fill-rule="nonzero"/><path fill="#1086f4" d="M 276.839844 56.777344 C 275.707031 57.644531 275.496094 59.269531 276.363281 60.394531 C 277.226562 61.523438 278.855469 61.738281 279.980469 60.871094 C 281.113281 60.007812 281.324219 58.382812 280.457031 57.253906 C 279.59375 56.121094 277.96875 55.914062 276.839844 56.777344 Z M 276.839844 56.777344 " fill-opacity="1" fill-rule="nonzero"/></svg>