<svg xmlns="http://www.w3.org/2000/svg" xmlns:xlink="http://www.w3.org/1999/xlink" width="500" zoomAndPan="magnify" viewBox="0 0 375 374.999991" height="500" preserveAspectRatio="xMidYMid meet" version="1.0"><defs><g/><clipPath id="6d6f7c2409"><path d="M 217 6.75 L 223 6.75 L 223 12 L 217 12 Z M 217 6.75 " clip-rule="nonzero"/></clipPath><clipPath id="2e7b558d42"><path d="M 49.28125 7 L 324 7 L 324 285.75 L 49.28125 285.75 Z M 49.28125 7 " clip-rule="nonzero"/></clipPath></defs><path fill="#1086f4" d="M 303.285156 224.269531 C 303.285156 224.625 303.21875 224.96875 303.082031 225.296875 C 302.945312 225.625 302.75 225.914062 302.5 226.167969 C 302.25 226.417969 301.957031 226.613281 301.628906 226.75 C 301.300781 226.886719 300.957031 226.953125 300.601562 226.953125 C 300.246094 226.953125 299.902344 226.886719 299.574219 226.75 C 299.242188 226.613281 298.953125 226.417969 298.703125 226.167969 C 298.449219 225.914062 298.253906 225.625 298.121094 225.296875 C 297.984375 224.96875 297.914062 224.625 297.914062 224.269531 C 297.914062 223.910156 297.984375 223.570312 298.121094 223.242188 C 298.253906 222.910156 298.449219 222.621094 298.703125 222.367188 C 298.953125 222.117188 299.242188 221.921875 299.574219 221.785156 C 299.902344 221.652344 300.246094 221.582031 300.601562 221.582031 C 300.957031 221.582031 301.300781 221.652344 301.628906 221.785156 C 301.957031 221.921875 302.25 222.117188 302.5 222.367188 C 302.75 222.621094 302.945312 222.910156 303.082031 223.242188 C 303.21875 223.570312 303.285156 223.910156 303.285156 224.269531 Z M 303.285156 224.269531 " fill-opacity="1" fill-rule="nonzero"/><path fill="#1086f4" d="M 268.460938 254.542969 C 268.757812 254.839844 268.984375 255.179688 269.144531 255.566406 C 269.304688 255.953125 269.386719 256.355469 269.386719 256.773438 C 269.386719 257.191406 269.304688 257.59375 269.144531 257.980469 C 268.984375 258.367188 268.757812 258.707031 268.460938 259.003906 C 268.167969 259.296875 267.824219 259.527344 267.4375 259.6875 C 267.054688 259.84375 266.652344 259.925781 266.234375 259.925781 C 265.816406 259.925781 265.414062 259.84375 265.027344 259.6875 C 264.640625 259.527344 264.300781 259.296875 264.003906 259.003906 C 263.707031 258.707031 263.480469 258.367188 263.320312 257.980469 C 263.160156 257.59375 263.082031 257.191406 263.082031 256.773438 C 263.082031 256.355469 263.160156 255.953125 263.320312 255.566406 C 263.480469 255.179688 263.707031 254.839844 264.003906 254.542969 C 264.300781 254.25 264.640625 254.023438 265.027344 253.863281 C 265.414062 253.703125 265.816406 253.621094 266.234375 253.621094 C 266.652344 253.621094 267.054688 253.703125 267.441406 253.863281 C 267.824219 254.023438 268.167969 254.25 268.460938 254.542969 Z M 268.460938 254.542969 " fill-opacity="1" fill-rule="nonzero"/><path fill="#1086f4" d="M 241.179688 241.179688 C 241.269531 241.5625 241.285156 241.945312 241.222656 242.332031 C 241.160156 242.71875 241.023438 243.078125 240.820312 243.414062 C 240.613281 243.746094 240.351562 244.027344 240.03125 244.257812 C 239.714844 244.488281 239.363281 244.648438 238.980469 244.738281 C 238.601562 244.828125 238.214844 244.839844 237.828125 244.777344 C 237.441406 244.714844 237.082031 244.582031 236.746094 244.375 C 236.414062 244.167969 236.132812 243.90625 235.902344 243.585938 C 235.671875 243.269531 235.515625 242.917969 235.425781 242.539062 C 235.332031 242.15625 235.320312 241.773438 235.382812 241.382812 C 235.445312 240.996094 235.582031 240.636719 235.785156 240.304688 C 235.992188 239.96875 236.253906 239.6875 236.574219 239.457031 C 236.890625 239.230469 237.242188 239.070312 237.625 238.980469 C 238.003906 238.890625 238.390625 238.875 238.777344 238.9375 C 239.164062 239 239.523438 239.136719 239.859375 239.34375 C 240.191406 239.546875 240.472656 239.8125 240.703125 240.128906 C 240.929688 240.449219 241.089844 240.796875 241.179688 241.179688 Z M 241.179688 241.179688 " fill-opacity="1" fill-rule="nonzero"/><path fill="#1086f4" d="M 198.035156 263.929688 C 198.035156 264.28125 197.96875 264.617188 197.832031 264.941406 C 197.699219 265.269531 197.507812 265.554688 197.257812 265.804688 C 197.007812 266.050781 196.722656 266.246094 196.398438 266.378906 C 196.074219 266.511719 195.734375 266.582031 195.382812 266.582031 C 195.03125 266.582031 194.691406 266.511719 194.367188 266.378906 C 194.042969 266.246094 193.753906 266.050781 193.507812 265.804688 C 193.257812 265.554688 193.066406 265.269531 192.933594 264.941406 C 192.796875 264.617188 192.730469 264.28125 192.730469 263.929688 C 192.730469 263.578125 192.796875 263.238281 192.933594 262.914062 C 193.066406 262.589844 193.257812 262.300781 193.507812 262.050781 C 193.753906 261.804688 194.042969 261.613281 194.367188 261.476562 C 194.691406 261.34375 195.03125 261.277344 195.382812 261.277344 C 195.734375 261.277344 196.074219 261.34375 196.398438 261.476562 C 196.722656 261.613281 197.007812 261.804688 197.257812 262.050781 C 197.507812 262.300781 197.699219 262.589844 197.832031 262.914062 C 197.96875 263.238281 198.035156 263.578125 198.035156 263.929688 Z M 198.035156 263.929688 " fill-opacity="1" fill-rule="nonzero"/><path fill="#1086f4" d="M 224.011719 197.316406 C 224.425781 197.488281 224.792969 197.730469 225.109375 198.046875 C 225.425781 198.363281 225.667969 198.726562 225.839844 199.140625 C 226.011719 199.554688 226.097656 199.984375 226.097656 200.433594 C 226.097656 200.878906 226.011719 201.3125 225.839844 201.722656 C 225.667969 202.136719 225.425781 202.503906 225.109375 202.820312 C 224.792969 203.136719 224.425781 203.378906 224.011719 203.550781 C 223.601562 203.722656 223.167969 203.808594 222.722656 203.808594 C 222.273438 203.808594 221.84375 203.722656 221.429688 203.550781 C 221.015625 203.378906 220.652344 203.136719 220.335938 202.820312 C 220.019531 202.503906 219.777344 202.136719 219.605469 201.722656 C 219.433594 201.3125 219.347656 200.878906 219.347656 200.433594 C 219.347656 199.984375 219.433594 199.554688 219.605469 199.140625 C 219.777344 198.726562 220.019531 198.363281 220.335938 198.046875 C 220.652344 197.730469 221.015625 197.488281 221.429688 197.316406 C 221.84375 197.144531 222.273438 197.058594 222.722656 197.058594 C 223.167969 197.058594 223.601562 197.144531 224.011719 197.316406 Z M 224.011719 197.316406 " fill-opacity="1" fill-rule="nonzero"/><path fill="#1086f4" d="M 294.789062 47.105469 C 294.789062 47.410156 294.730469 47.703125 294.617188 47.984375 C 294.5 48.269531 294.332031 48.515625 294.117188 48.734375 C 293.898438 48.949219 293.652344 49.113281 293.367188 49.230469 C 293.085938 49.347656 292.792969 49.40625 292.488281 49.40625 C 292.183594 49.40625 291.890625 49.347656 291.605469 49.230469 C 291.324219 49.113281 291.074219 48.949219 290.859375 48.734375 C 290.644531 48.515625 290.476562 48.269531 290.359375 47.984375 C 290.242188 47.703125 290.183594 47.410156 290.183594 47.105469 C 290.183594 46.796875 290.242188 46.503906 290.359375 46.222656 C 290.476562 45.941406 290.644531 45.691406 290.859375 45.476562 C 291.074219 45.261719 291.324219 45.09375 291.605469 44.976562 C 291.890625 44.859375 292.183594 44.800781 292.488281 44.800781 C 292.792969 44.800781 293.085938 44.859375 293.367188 44.976562 C 293.652344 45.09375 293.898438 45.261719 294.117188 45.476562 C 294.332031 45.691406 294.5 45.941406 294.617188 46.222656 C 294.730469 46.503906 294.789062 46.796875 294.789062 47.105469 Z M 294.789062 47.105469 " fill-opacity="1" fill-rule="nonzero"/><path fill="#1086f4" d="M 316.617188 87.667969 C 317.824219 87.667969 318.808594 86.6875 318.808594 85.476562 C 318.808594 84.265625 317.824219 83.285156 316.617188 83.285156 C 315.40625 83.285156 314.425781 84.265625 314.425781 85.476562 C 314.425781 86.6875 315.40625 87.667969 316.617188 87.667969 Z M 316.617188 87.667969 " fill-opacity="1" fill-rule="nonzero"/><path fill="#1086f4" d="M 231.160156 77.402344 C 231.429688 77.671875 231.632812 77.980469 231.777344 78.328125 C 231.925781 78.679688 231.996094 79.042969 231.996094 79.421875 C 231.996094 79.796875 231.925781 80.164062 231.777344 80.511719 C 231.632812 80.859375 231.429688 81.167969 231.160156 81.4375 C 230.894531 81.703125 230.585938 81.910156 230.234375 82.054688 C 229.886719 82.199219 229.523438 82.273438 229.144531 82.273438 C 228.765625 82.273438 228.402344 82.199219 228.050781 82.054688 C 227.703125 81.910156 227.394531 81.703125 227.128906 81.4375 C 226.859375 81.167969 226.652344 80.859375 226.507812 80.511719 C 226.363281 80.164062 226.292969 79.796875 226.292969 79.421875 C 226.292969 79.042969 226.363281 78.679688 226.507812 78.328125 C 226.652344 77.980469 226.859375 77.671875 227.128906 77.402344 C 227.394531 77.136719 227.703125 76.929688 228.050781 76.785156 C 228.402344 76.640625 228.765625 76.566406 229.144531 76.566406 C 229.523438 76.566406 229.886719 76.640625 230.234375 76.785156 C 230.585938 76.929688 230.894531 77.136719 231.160156 77.402344 Z M 231.160156 77.402344 " fill-opacity="1" fill-rule="nonzero"/><path fill="#1086f4" d="M 256.773438 84.671875 C 257.042969 84.9375 257.246094 85.246094 257.390625 85.597656 C 257.535156 85.945312 257.609375 86.308594 257.609375 86.6875 C 257.609375 87.066406 257.535156 87.429688 257.390625 87.777344 C 257.246094 88.128906 257.042969 88.4375 256.773438 88.703125 C 256.507812 88.972656 256.199219 89.179688 255.847656 89.324219 C 255.5 89.46875 255.136719 89.539062 254.757812 89.539062 C 254.378906 89.539062 254.015625 89.46875 253.664062 89.324219 C 253.316406 89.179688 253.007812 88.972656 252.738281 88.703125 C 252.472656 88.4375 252.265625 88.128906 252.121094 87.777344 C 251.976562 87.429688 251.90625 87.066406 251.90625 86.6875 C 251.90625 86.308594 251.976562 85.945312 252.121094 85.597656 C 252.265625 85.246094 252.472656 84.9375 252.738281 84.671875 C 253.007812 84.402344 253.316406 84.195312 253.664062 84.050781 C 254.015625 83.90625 254.378906 83.835938 254.757812 83.835938 C 255.136719 83.835938 255.5 83.90625 255.847656 84.050781 C 256.199219 84.195312 256.507812 84.402344 256.773438 84.671875 Z M 256.773438 84.671875 " fill-opacity="1" fill-rule="nonzero"/><path fill="#1086f4" d="M 260.796875 107.972656 C 261.144531 108.117188 261.453125 108.324219 261.722656 108.589844 C 261.988281 108.855469 262.195312 109.164062 262.339844 109.515625 C 262.484375 109.863281 262.554688 110.226562 262.554688 110.605469 C 262.554688 110.984375 262.484375 111.347656 262.339844 111.699219 C 262.195312 112.046875 261.988281 112.355469 261.722656 112.625 C 261.453125 112.890625 261.144531 113.097656 260.796875 113.242188 C 260.445312 113.386719 260.082031 113.460938 259.703125 113.460938 C 259.324219 113.460938 258.960938 113.386719 258.613281 113.242188 C 258.261719 113.097656 257.953125 112.890625 257.6875 112.625 C 257.417969 112.355469 257.214844 112.046875 257.070312 111.699219 C 256.925781 111.347656 256.851562 110.984375 256.851562 110.605469 C 256.851562 110.226562 256.925781 109.863281 257.070312 109.515625 C 257.214844 109.164062 257.417969 108.855469 257.6875 108.589844 C 257.953125 108.324219 258.261719 108.117188 258.613281 107.972656 C 258.960938 107.828125 259.324219 107.753906 259.703125 107.753906 C 260.082031 107.753906 260.445312 107.828125 260.796875 107.972656 Z M 260.796875 107.972656 " fill-opacity="1" fill-rule="nonzero"/><path fill="#1086f4" d="M 260.378906 163.445312 C 260.46875 163.816406 260.480469 164.183594 260.417969 164.558594 C 260.359375 164.933594 260.230469 165.28125 260.03125 165.601562 C 259.832031 165.921875 259.578125 166.195312 259.273438 166.414062 C 258.964844 166.636719 258.628906 166.789062 258.257812 166.878906 C 257.890625 166.964844 257.519531 166.976562 257.148438 166.917969 C 256.773438 166.855469 256.425781 166.726562 256.105469 166.527344 C 255.78125 166.328125 255.511719 166.078125 255.289062 165.769531 C 255.070312 165.460938 254.914062 165.125 254.828125 164.757812 C 254.742188 164.390625 254.726562 164.019531 254.789062 163.644531 C 254.847656 163.269531 254.980469 162.921875 255.179688 162.601562 C 255.375 162.28125 255.628906 162.007812 255.9375 161.789062 C 256.242188 161.566406 256.582031 161.414062 256.949219 161.324219 C 257.316406 161.238281 257.6875 161.226562 258.0625 161.285156 C 258.433594 161.347656 258.78125 161.476562 259.105469 161.675781 C 259.425781 161.875 259.695312 162.128906 259.917969 162.433594 C 260.140625 162.742188 260.292969 163.078125 260.378906 163.445312 Z M 260.378906 163.445312 " fill-opacity="1" fill-rule="nonzero"/><path fill="#1086f4" d="M 229.144531 48.597656 C 227.910156 48.597656 226.914062 49.597656 226.914062 50.828125 C 226.914062 52.058594 227.910156 53.058594 229.144531 53.058594 C 230.375 53.058594 231.375 52.058594 231.375 50.828125 C 231.375 49.597656 230.375 48.597656 229.144531 48.597656 Z M 229.144531 48.597656 " fill-opacity="1" fill-rule="nonzero"/><g clip-path="url(#6d6f7c2409)"><path fill="#1086f4" d="M 219.964844 11.710938 C 221.296875 11.710938 222.378906 10.628906 222.378906 9.296875 C 222.378906 7.964844 221.296875 6.882812 219.964844 6.882812 C 218.632812 6.882812 217.550781 7.964844 217.550781 9.296875 C 217.550781 10.628906 218.632812 11.710938 219.964844 11.710938 Z M 219.964844 11.710938 " fill-opacity="1" fill-rule="nonzero"/></g><g clip-path="url(#2e7b558d42)"><path fill="#1086f4" d="M 320.304688 147.371094 C 322.070312 147.371094 323.496094 145.941406 323.496094 144.183594 C 323.496094 142.421875 322.066406 140.992188 320.304688 140.992188 C 318.546875 140.992188 317.117188 142.421875 317.117188 144.183594 C 317.117188 144.835938 317.316406 145.445312 317.652344 145.957031 L 303.214844 156.625 C 302.769531 156.445312 302.292969 156.351562 301.789062 156.351562 C 301.121094 156.351562 300.496094 156.519531 299.945312 156.816406 L 272.976562 132.84375 C 273.804688 131.878906 274.308594 130.628906 274.308594 129.261719 C 274.308594 129.027344 274.292969 128.800781 274.265625 128.578125 L 302.59375 125.429688 C 302.96875 126.773438 304.203125 127.757812 305.660156 127.757812 C 307.425781 127.757812 308.851562 126.324219 308.851562 124.566406 C 308.851562 123.15625 307.9375 121.957031 306.667969 121.535156 L 308.742188 108.382812 C 308.742188 108.382812 308.773438 108.382812 308.785156 108.382812 C 310.285156 108.382812 311.5 107.167969 311.5 105.671875 C 311.5 104.171875 310.285156 102.957031 308.785156 102.957031 C 307.289062 102.957031 306.074219 104.171875 306.074219 105.671875 C 306.074219 106.792969 306.75 107.75 307.714844 108.160156 L 305.628906 121.371094 C 305.046875 121.371094 304.5 121.535156 304.03125 121.8125 L 279.082031 92.035156 C 280.335938 91.257812 281.179688 89.871094 281.179688 88.285156 C 281.179688 88.101562 281.160156 87.917969 281.140625 87.742188 L 295.417969 87.742188 C 295.417969 87.742188 295.417969 87.761719 295.417969 87.78125 C 295.417969 89.277344 296.632812 90.492188 298.132812 90.492188 C 299.628906 90.492188 300.84375 89.277344 300.84375 87.78125 C 300.84375 86.28125 299.628906 85.066406 298.132812 85.066406 C 297.015625 85.066406 296.0625 85.738281 295.644531 86.699219 L 280.878906 86.699219 C 280.453125 85.597656 279.609375 84.714844 278.53125 84.246094 L 276.773438 62.214844 C 277.941406 61.726562 278.765625 60.578125 278.765625 59.230469 C 278.765625 57.441406 277.316406 55.992188 275.53125 55.992188 C 273.742188 55.992188 272.292969 57.441406 272.292969 59.230469 C 272.292969 59.382812 272.3125 59.535156 272.328125 59.679688 L 251.824219 66.136719 C 251.480469 64.089844 249.730469 62.527344 247.605469 62.464844 L 239.410156 36.59375 C 239.996094 36.039062 240.429688 35.328125 240.648438 34.53125 L 252.382812 36.722656 C 252.460938 38.230469 253.691406 39.429688 255.21875 39.429688 C 256.746094 39.429688 258.070312 38.152344 258.070312 36.578125 C 258.070312 35 256.796875 33.726562 255.21875 33.726562 C 254.058594 33.726562 253.0625 34.425781 252.617188 35.417969 L 240.792969 33.210938 C 240.695312 30.855469 238.765625 28.976562 236.390625 28.976562 C 235.066406 28.976562 233.878906 29.5625 233.074219 30.488281 L 194.433594 16.910156 C 194.710938 16.179688 194.871094 15.390625 194.871094 14.5625 C 194.871094 10.921875 191.917969 7.972656 188.28125 7.972656 C 184.640625 7.972656 181.6875 10.921875 181.6875 14.5625 C 181.6875 14.933594 181.726562 15.300781 181.785156 15.65625 L 142.277344 22.308594 C 141.492188 20.183594 139.457031 18.664062 137.058594 18.664062 C 133.992188 18.664062 131.5 21.15625 131.5 24.226562 C 131.5 24.519531 131.527344 24.800781 131.570312 25.085938 L 78.660156 66.472656 C 77.71875 64.789062 75.917969 63.644531 73.847656 63.644531 C 70.800781 63.644531 68.339844 66.117188 68.339844 69.15625 C 68.339844 71.394531 69.671875 73.3125 71.585938 74.179688 L 52.640625 143.183594 C 50.664062 144.019531 49.28125 145.980469 49.28125 148.261719 C 49.28125 150.542969 50.746094 152.601562 52.808594 153.398438 L 66.960938 209.433594 C 65.054688 210.890625 63.820312 213.175781 63.820312 215.761719 C 63.820312 220.15625 67.382812 223.71875 71.78125 223.71875 C 73.003906 223.71875 74.160156 223.4375 75.199219 222.9375 L 109.628906 258.234375 C 109.3125 258.933594 109.132812 259.707031 109.132812 260.519531 C 109.132812 263.566406 111.601562 266.03125 114.640625 266.03125 C 116.773438 266.03125 118.613281 264.820312 119.535156 263.058594 L 158.269531 276.746094 C 158.234375 277.046875 158.214844 277.347656 158.214844 277.652344 C 158.214844 282.03125 161.765625 285.582031 166.144531 285.582031 C 170.179688 285.582031 173.496094 282.566406 174 278.671875 L 221.828125 272.464844 C 222.117188 274.457031 223.828125 275.988281 225.898438 275.988281 C 228.167969 275.988281 230.007812 274.144531 230.007812 271.875 C 230.007812 271.691406 229.992188 271.515625 229.96875 271.34375 L 252.324219 267.867188 L 252.257812 266.824219 L 229.703125 270.328125 C 229.492188 269.808594 229.183594 269.34375 228.792969 268.957031 L 257.707031 234.222656 C 258.1875 234.363281 258.703125 234.441406 259.230469 234.441406 C 260.414062 234.441406 261.507812 234.0625 262.40625 233.429688 L 276.167969 237.800781 C 276.167969 237.800781 276.167969 237.808594 276.167969 237.8125 C 276.167969 239.679688 277.675781 241.1875 279.542969 241.1875 C 281.40625 241.1875 282.914062 239.679688 282.914062 237.8125 C 282.914062 235.949219 281.40625 234.441406 279.542969 234.441406 C 278.050781 234.441406 276.777344 235.410156 276.339844 236.757812 L 263.320312 232.625 C 264.210938 231.648438 264.753906 230.351562 264.753906 228.929688 C 264.753906 226.738281 263.472656 224.84375 261.613281 223.957031 L 262.589844 208.707031 C 262.953125 208.839844 263.347656 208.925781 263.757812 208.925781 C 265.625 208.925781 267.132812 207.414062 267.132812 205.550781 C 267.132812 205.101562 267.042969 204.667969 266.882812 204.273438 L 288.34375 193.324219 C 288.679688 193.785156 289.128906 194.164062 289.652344 194.40625 L 284.824219 211.222656 C 283.03125 211.300781 281.59375 212.777344 281.59375 214.589844 C 281.59375 216.40625 283.105469 217.964844 284.96875 217.964844 C 286.832031 217.964844 288.34375 216.453125 288.34375 214.589844 C 288.34375 213.042969 287.300781 211.738281 285.875 211.34375 L 290.652344 194.703125 C 290.789062 194.71875 290.929688 194.730469 291.066406 194.730469 C 292.316406 194.730469 293.410156 194.046875 293.992188 193.039062 L 305.882812 197.597656 C 305.878906 197.675781 305.863281 197.75 305.863281 197.824219 C 305.863281 199.308594 307.066406 200.511719 308.546875 200.511719 C 310.027344 200.511719 311.234375 199.308594 311.234375 197.824219 C 311.234375 196.34375 310.027344 195.140625 308.546875 195.140625 C 307.515625 195.140625 306.628906 195.734375 306.175781 196.589844 L 294.367188 192.058594 C 294.417969 191.832031 294.445312 191.59375 294.445312 191.355469 C 294.445312 190.910156 294.359375 190.484375 294.203125 190.097656 L 301.394531 185.816406 L 300.863281 184.917969 L 293.667969 189.195312 C 293.046875 188.453125 292.117188 187.976562 291.074219 187.976562 C 290.25 187.976562 289.503906 188.269531 288.914062 188.757812 L 274.640625 176.207031 C 274.917969 175.671875 275.074219 175.070312 275.074219 174.429688 C 275.074219 173.859375 274.945312 173.320312 274.730469 172.832031 L 298.382812 162.050781 C 299.035156 163.269531 300.316406 164.105469 301.800781 164.105469 C 302.386719 164.105469 302.941406 163.96875 303.441406 163.730469 L 313.65625 175.644531 L 314.453125 174.96875 L 304.328125 163.160156 C 305.152344 162.449219 305.679688 161.402344 305.679688 160.230469 C 305.679688 159.058594 305.105469 157.910156 304.214844 157.199219 L 318.390625 146.730469 C 318.929688 147.140625 319.59375 147.382812 320.324219 147.382812 Z M 79.097656 70.84375 L 90.65625 75.792969 C 90.0625 76.832031 89.714844 78.03125 89.714844 79.3125 C 89.714844 81.175781 90.441406 82.875 91.625 84.132812 L 76.285156 106.628906 C 76.074219 106.558594 75.859375 106.507812 75.636719 106.484375 L 74.554688 74.621094 C 76.695312 74.34375 78.457031 72.847656 79.097656 70.839844 Z M 206.121094 188.148438 C 205.441406 187.554688 204.621094 187.128906 203.710938 186.921875 L 203.449219 154.902344 C 203.605469 154.910156 203.761719 154.925781 203.917969 154.925781 C 206.113281 154.925781 208.113281 154.105469 209.636719 152.753906 C 215.726562 159.351562 229.15625 173.925781 234.949219 180.347656 C 234.175781 181.113281 233.695312 182.167969 233.65625 183.332031 L 206.121094 188.136719 Z M 214.9375 227.347656 C 214.9375 227.878906 215.039062 228.390625 215.210938 228.867188 L 186.71875 232.097656 C 186.25 230.972656 185.4375 230.015625 184.429688 229.355469 L 201.320312 197.675781 C 201.703125 197.757812 202.097656 197.804688 202.503906 197.804688 C 203.417969 197.804688 204.285156 197.578125 205.042969 197.183594 L 216.792969 223.757812 C 215.671875 224.558594 214.9375 225.867188 214.9375 227.347656 Z M 137.425781 228.796875 C 137.371094 226.652344 135.976562 224.851562 134.042969 224.195312 L 145.613281 196.324219 C 146.160156 196.445312 146.734375 196.511719 147.316406 196.511719 C 148.558594 196.511719 149.730469 196.21875 150.773438 195.707031 L 176.671875 230.351562 C 175.777344 231.328125 175.207031 232.59375 175.105469 233.992188 L 137.425781 228.789062 Z M 108.328125 187.378906 C 109.21875 186.78125 109.9375 185.941406 110.359375 184.941406 L 139.414062 189.097656 C 139.617188 192.300781 141.714844 194.980469 144.601562 196.035156 L 133.003906 223.96875 C 132.816406 223.945312 132.625 223.933594 132.4375 223.933594 C 131.378906 223.933594 130.394531 224.269531 129.585938 224.835938 L 108.320312 187.382812 Z M 75.878906 170.128906 L 89.597656 143.207031 C 90.984375 144.394531 92.777344 145.109375 94.746094 145.109375 C 94.78125 145.109375 94.820312 145.109375 94.851562 145.109375 L 103.96875 177.4375 C 102.214844 177.871094 100.789062 179.136719 100.152344 180.800781 L 77.277344 173.269531 C 77.300781 173.109375 77.316406 172.949219 77.316406 172.789062 C 77.316406 171.679688 76.746094 170.703125 75.878906 170.136719 Z M 103.796875 78.347656 L 118.714844 72.34375 C 118.996094 73.339844 119.753906 74.132812 120.722656 74.484375 L 120.855469 97.203125 C 120.507812 97.390625 120.203125 97.644531 119.957031 97.957031 L 102.660156 83.28125 C 103.425781 82.148438 103.875 80.78125 103.875 79.316406 C 103.875 78.988281 103.847656 78.667969 103.804688 78.351562 Z M 235.773438 179.714844 C 229.964844 173.261719 216.492188 158.644531 210.382812 152.027344 C 211.753906 150.496094 212.589844 148.476562 212.589844 146.261719 C 212.589844 146.019531 212.574219 145.78125 212.550781 145.542969 L 239.960938 143.605469 C 240.28125 144.96875 241.242188 146.097656 242.507812 146.640625 L 237.800781 179.085938 C 237.0625 179.128906 236.367188 179.351562 235.769531 179.71875 Z M 181.136719 228.386719 C 179.746094 228.386719 178.46875 228.863281 177.441406 229.652344 L 151.6875 195.203125 C 153.339844 194.101562 154.558594 192.398438 155.023438 190.40625 L 197.003906 192.683594 C 197.140625 194.707031 198.367188 196.421875 200.105469 197.265625 L 183.484375 228.863281 C 182.761719 228.558594 181.964844 228.390625 181.132812 228.390625 Z M 110.691406 183.871094 C 110.761719 183.519531 110.796875 183.160156 110.796875 182.789062 C 110.796875 180.585938 109.496094 178.6875 107.632812 177.804688 L 119.464844 158.316406 C 120.25 158.75 121.15625 159 122.117188 159 C 123.425781 159 124.628906 158.539062 125.578125 157.773438 L 144.101562 181.351562 C 141.515625 182.5 139.667969 184.984375 139.425781 187.933594 Z M 101.550781 141.234375 L 116.765625 152.171875 C 116.660156 152.59375 116.601562 153.03125 116.601562 153.488281 C 116.601562 155.191406 117.371094 156.710938 118.585938 157.726562 L 106.804688 177.5 C 106.324219 177.359375 105.8125 177.28125 105.285156 177.28125 C 105.167969 177.28125 105.058594 177.292969 104.941406 177.300781 L 95.941406 145.027344 C 98.328125 144.664062 100.363281 143.238281 101.550781 141.246094 Z M 121.855469 74.679688 C 123.398438 74.65625 124.679688 73.546875 124.96875 72.082031 L 145.804688 76.148438 C 145.804688 76.1875 145.800781 76.230469 145.800781 76.269531 C 145.800781 77.335938 146.175781 78.320312 146.804688 79.085938 L 124.015625 97.539062 C 123.519531 97.125 122.886719 96.863281 122.1875 96.863281 C 122.15625 96.863281 122.121094 96.875 122.089844 96.875 L 121.859375 74.683594 Z M 169.679688 62.359375 C 169.679688 62.359375 169.691406 62.359375 169.699219 62.359375 L 180.511719 94.183594 C 180.320312 94.324219 180.144531 94.476562 179.988281 94.65625 L 154.269531 78.183594 C 154.546875 77.601562 154.707031 76.957031 154.707031 76.269531 C 154.707031 75.5 154.507812 74.773438 154.164062 74.140625 L 167.609375 61.453125 C 168.128906 62.007812 168.863281 62.363281 169.683594 62.363281 Z M 198.234375 66.730469 C 198.660156 66.730469 199.078125 66.691406 199.488281 66.636719 L 206.976562 101.152344 C 206.269531 101.449219 205.6875 101.976562 205.308594 102.636719 L 185.609375 96.984375 C 185.609375 96.917969 185.621094 96.859375 185.621094 96.792969 C 185.621094 95.625 185 94.609375 184.078125 94.042969 L 195.347656 66.265625 C 196.257812 66.566406 197.230469 66.730469 198.238281 66.730469 Z M 231.492188 114.53125 L 209.117188 139.335938 C 207.914062 138.433594 206.476562 137.832031 204.898438 137.65625 L 208.488281 107.816406 C 209.921875 107.746094 211.121094 106.8125 211.582031 105.519531 L 230.457031 110.929688 C 230.421875 111.160156 230.398438 111.398438 230.398438 111.636719 C 230.398438 112.746094 230.8125 113.761719 231.492188 114.53125 Z M 196.074219 149.941406 L 176.148438 158.949219 C 175.5625 158.199219 174.644531 157.710938 173.613281 157.710938 C 173.089844 157.710938 172.597656 157.839844 172.160156 158.058594 L 153.625 132.761719 C 154.945312 131.941406 156.042969 130.808594 156.808594 129.453125 L 195.96875 142.800781 C 195.503906 143.859375 195.242188 145.03125 195.242188 146.261719 C 195.242188 147.578125 195.542969 148.820312 196.070312 149.941406 Z M 149.097656 180.875 L 148.558594 134.148438 C 148.625 134.148438 148.6875 134.160156 148.746094 134.160156 C 150.160156 134.160156 151.5 133.832031 152.703125 133.265625 L 171.316406 158.675781 C 170.742188 159.257812 170.390625 160.050781 170.390625 160.933594 C 170.390625 161.554688 170.566406 162.132812 170.871094 162.628906 L 151.78125 182.050781 C 150.976562 181.5 150.066406 181.101562 149.089844 180.875 Z M 150.25 80.726562 C 151.65625 80.726562 152.902344 80.078125 153.71875 79.0625 L 179.429688 95.527344 C 179.261719 95.914062 179.167969 96.34375 179.167969 96.792969 C 179.167969 97.398438 179.335938 97.957031 179.628906 98.441406 L 155.640625 118.695312 C 154.078125 116.957031 151.875 115.8125 149.394531 115.640625 L 149.894531 80.703125 C 150.011719 80.714844 150.128906 80.722656 150.246094 80.722656 Z M 207.453125 107.710938 L 203.855469 137.601562 C 203.289062 137.601562 202.742188 137.660156 202.203125 137.765625 L 184.21875 99.449219 C 184.734375 99.09375 185.136719 98.59375 185.378906 98.007812 L 204.925781 103.613281 C 204.878906 103.851562 204.84375 104.101562 204.84375 104.355469 C 204.84375 105.96875 205.953125 107.328125 207.453125 107.710938 Z M 156.300781 119.511719 L 180.304688 99.246094 C 180.867188 99.726562 181.597656 100.015625 182.398438 100.015625 C 182.703125 100.015625 182.996094 99.972656 183.273438 99.894531 L 201.179688 138.042969 C 199.183594 138.710938 197.511719 140.082031 196.457031 141.863281 L 157.285156 128.511719 C 157.757812 127.394531 158.023438 126.167969 158.023438 124.882812 C 158.023438 122.871094 157.382812 121.023438 156.300781 119.503906 Z M 125.03125 99.710938 C 125.03125 99.074219 124.8125 98.496094 124.464844 98.019531 L 147.640625 79.878906 C 148.015625 80.144531 148.425781 80.359375 148.867188 80.503906 L 148.363281 115.632812 C 145.65625 115.742188 143.246094 117.007812 141.621094 118.957031 L 124.109375 101.792969 C 124.667969 101.269531 125.023438 100.539062 125.023438 99.710938 Z M 142.171875 131.425781 L 125.773438 149.375 C 124.796875 148.511719 123.519531 147.976562 122.117188 147.976562 C 119.90625 147.976562 118.011719 149.277344 117.128906 151.152344 L 102.035156 140.304688 C 102.445312 139.347656 102.671875 138.292969 102.671875 137.191406 C 102.671875 135.792969 102.304688 134.480469 101.671875 133.34375 L 139.878906 127.617188 C 140.328125 129.070312 141.121094 130.371094 142.164062 131.425781 Z M 147.316406 180.667969 C 146.554688 180.667969 145.828125 180.777344 145.132812 180.980469 L 126.328125 157.039062 C 127.136719 156.078125 127.625 154.84375 127.625 153.488281 C 127.625 152.226562 127.199219 151.070312 126.484375 150.140625 L 142.949219 132.117188 C 144.234375 133.148438 145.800781 133.839844 147.507812 134.070312 L 148.046875 180.707031 C 147.804688 180.683594 147.558594 180.667969 147.316406 180.667969 Z M 171.558594 163.414062 C 172.113281 163.875 172.832031 164.152344 173.613281 164.152344 C 174.304688 164.152344 174.949219 163.929688 175.472656 163.558594 L 199.066406 187.992188 C 197.960938 188.875 197.203125 190.167969 197.023438 191.644531 L 155.199219 189.378906 C 155.226562 189.125 155.238281 188.863281 155.238281 188.597656 C 155.238281 186.257812 154.21875 184.160156 152.605469 182.703125 L 171.558594 163.421875 Z M 199.960938 187.410156 L 176.214844 162.820312 C 176.605469 162.289062 176.835938 161.632812 176.835938 160.929688 C 176.835938 160.550781 176.769531 160.195312 176.652344 159.863281 L 196.582031 150.859375 C 197.855469 152.894531 199.953125 154.359375 202.414062 154.792969 L 202.675781 186.800781 C 202.617188 186.800781 202.5625 186.789062 202.503906 186.789062 C 201.585938 186.789062 200.726562 187.015625 199.964844 187.410156 Z M 239.832031 142.5625 L 212.402344 144.503906 C 212.042969 142.75 211.148438 141.195312 209.90625 140.007812 L 232.257812 115.230469 C 232.976562 115.742188 233.855469 116.042969 234.796875 116.042969 C 235.140625 116.042969 235.476562 115.996094 235.796875 115.925781 L 242.734375 138.445312 C 241.046875 139.058594 239.835938 140.667969 239.824219 142.566406 Z M 230.738281 109.921875 L 211.773438 104.484375 C 211.773438 104.4375 211.78125 104.394531 211.78125 104.351562 C 211.78125 102.433594 210.226562 100.882812 208.3125 100.882812 C 208.199219 100.882812 208.089844 100.886719 207.980469 100.898438 L 200.503906 66.4375 C 201.324219 66.230469 202.097656 65.921875 202.8125 65.511719 L 232.632812 107.789062 C 231.785156 108.265625 231.113281 109.015625 230.730469 109.921875 Z M 194.359375 65.878906 L 183.097656 93.644531 C 182.867188 93.59375 182.628906 93.5625 182.386719 93.5625 C 182.054688 93.5625 181.730469 93.613281 181.433594 93.707031 L 170.714844 62.148438 C 171.769531 61.730469 172.519531 60.710938 172.519531 59.507812 C 172.519531 59.429688 172.503906 59.351562 172.496094 59.273438 L 189.054688 58.722656 C 189.496094 61.910156 191.546875 64.578125 194.367188 65.871094 Z M 166.824219 59.511719 C 166.824219 59.90625 166.902344 60.277344 167.046875 60.621094 L 153.582031 73.328125 C 152.765625 72.402344 151.570312 71.816406 150.238281 71.816406 C 150.207031 71.816406 150.179688 71.816406 150.144531 71.816406 L 139.207031 29.347656 C 139.730469 29.128906 140.207031 28.835938 140.628906 28.476562 L 167.667969 57.480469 C 167.148438 57.996094 166.820312 58.714844 166.820312 59.5 Z M 137.058594 29.785156 C 137.488281 29.785156 137.902344 29.730469 138.304688 29.640625 L 149.097656 71.96875 C 147.558594 72.375 146.355469 73.578125 145.945312 75.117188 L 124.984375 71.027344 C 124.835938 69.921875 124.128906 69 123.160156 68.539062 L 136.398438 29.742188 C 136.617188 29.769531 136.832031 29.785156 137.054688 29.785156 Z M 120.605469 102.074219 C 121.054688 102.375 121.59375 102.546875 122.171875 102.546875 C 122.53125 102.546875 122.871094 102.472656 123.1875 102.351562 L 140.984375 119.796875 C 140.023438 121.257812 139.464844 123.007812 139.464844 124.882812 C 139.464844 125.464844 139.523438 126.035156 139.628906 126.589844 L 101.027344 132.378906 C 100.691406 131.933594 100.308594 131.523438 99.878906 131.164062 Z M 243.511719 146.929688 C 243.75 146.96875 243.988281 146.996094 244.238281 146.996094 C 246.671875 146.996094 248.648438 145.019531 248.648438 142.582031 C 248.648438 142.179688 248.589844 141.785156 248.488281 141.414062 L 264.464844 132.667969 C 264.832031 133.128906 265.261719 133.53125 265.757812 133.859375 L 238.9375 178.464844 L 243.511719 146.933594 Z M 248.089844 140.4375 C 247.335938 139.085938 245.890625 138.171875 244.238281 138.171875 C 244.070312 138.171875 243.910156 138.183594 243.753906 138.199219 L 236.785156 115.570312 C 237.546875 115.1875 238.171875 114.59375 238.605469 113.867188 L 264.886719 125.375 C 263.898438 126.375 263.289062 127.746094 263.289062 129.253906 C 263.289062 130.164062 263.515625 131.023438 263.902344 131.785156 L 248.09375 140.4375 Z M 265.789062 124.632812 L 239.019531 112.90625 C 239.144531 112.5 239.210938 112.074219 239.210938 111.628906 C 239.210938 111.03125 239.089844 110.460938 238.871094 109.9375 L 273.085938 90.710938 C 273.5 91.335938 274.070312 91.847656 274.734375 92.195312 L 267.53125 123.894531 C 266.902344 124.039062 266.3125 124.292969 265.785156 124.636719 Z M 272.628906 89.773438 L 238.359375 109.027344 C 237.804688 108.265625 237.019531 107.691406 236.097656 107.40625 L 246.757812 71.203125 C 246.996094 71.242188 247.238281 71.269531 247.488281 71.269531 C 248.710938 71.269531 249.820312 70.773438 250.621094 69.96875 L 272.527344 87.089844 C 272.421875 87.46875 272.359375 87.863281 272.359375 88.273438 C 272.359375 88.800781 272.457031 89.300781 272.628906 89.765625 Z M 245.753906 70.914062 L 235.058594 107.230469 C 234.976562 107.230469 234.886719 107.21875 234.804688 107.21875 C 234.398438 107.21875 234.003906 107.28125 233.628906 107.378906 L 203.691406 64.933594 C 205.304688 63.75 206.523438 62.070312 207.109375 60.113281 L 243.089844 66.597656 C 243.089844 66.6875 243.078125 66.769531 243.078125 66.859375 C 243.078125 68.679688 244.175781 70.238281 245.753906 70.914062 Z M 188.960938 57.667969 L 172.175781 58.179688 C 171.699219 57.28125 170.761719 56.660156 169.671875 56.660156 C 169.296875 56.660156 168.933594 56.738281 168.609375 56.871094 L 141.234375 27.886719 C 141.695312 27.367188 142.054688 26.761719 142.292969 26.09375 L 189.644531 53.941406 C 189.199219 55.023438 188.949219 56.203125 188.949219 57.449219 C 188.949219 57.519531 188.960938 57.59375 188.960938 57.667969 Z M 135.117188 29.425781 L 122.117188 68.246094 C 122.011719 68.234375 121.90625 68.230469 121.800781 68.230469 C 120.019531 68.230469 118.574219 69.671875 118.574219 71.453125 C 118.574219 71.464844 118.574219 71.480469 118.574219 71.492188 L 103.582031 77.375 C 103.214844 76.09375 102.5 74.960938 101.546875 74.089844 L 134.109375 28.929688 C 134.425781 29.128906 134.761719 29.296875 135.113281 29.429688 Z M 101.996094 84.089844 L 119.457031 98.910156 C 119.386719 99.160156 119.332031 99.425781 119.332031 99.699219 C 119.332031 100.308594 119.523438 100.871094 119.851562 101.332031 L 99.046875 130.53125 C 97.949219 129.820312 96.667969 129.371094 95.285156 129.277344 L 97.753906 86.308594 C 99.425781 86.082031 100.902344 85.273438 101.988281 84.085938 Z M 94.242188 129.277344 C 92.238281 129.398438 90.4375 130.257812 89.105469 131.601562 L 77.378906 111.808594 C 77.988281 111.246094 78.378906 110.441406 78.378906 109.542969 C 78.378906 108.5625 77.917969 107.691406 77.199219 107.128906 L 92.390625 84.855469 C 93.578125 85.796875 95.074219 86.371094 96.699219 86.386719 L 94.230469 129.28125 Z M 75.304688 112.625 C 75.730469 112.625 76.136719 112.535156 76.507812 112.378906 L 88.394531 132.445312 C 87.40625 133.765625 86.8125 135.402344 86.8125 137.183594 C 86.8125 137.402344 86.828125 137.613281 86.84375 137.824219 L 59.84375 146.050781 C 59.472656 145.207031 58.898438 144.480469 58.183594 143.921875 L 74.144531 112.394531 C 74.503906 112.546875 74.898438 112.625 75.308594 112.625 Z M 60.164062 147.039062 L 86.996094 138.867188 C 87.304688 140.296875 88.003906 141.585938 88.976562 142.613281 L 74.941406 169.71875 C 74.6875 169.652344 74.414062 169.613281 74.136719 169.613281 C 73.605469 169.613281 73.105469 169.746094 72.660156 169.980469 L 58.945312 151.878906 C 59.789062 150.90625 60.304688 149.648438 60.304688 148.261719 C 60.304688 147.839844 60.253906 147.433594 60.164062 147.039062 Z M 74.742188 175.890625 C 75.703125 175.707031 76.507812 175.085938 76.945312 174.246094 L 99.859375 181.789062 C 99.804688 182.109375 99.765625 182.4375 99.765625 182.777344 C 99.765625 184.417969 100.484375 185.882812 101.621094 186.894531 L 78.25 211.132812 C 77.066406 209.480469 75.269531 208.296875 73.1875 207.925781 L 74.742188 175.882812 Z M 78.816406 212.054688 L 102.484375 187.519531 C 103.304688 188.003906 104.257812 188.285156 105.28125 188.285156 C 106.046875 188.285156 106.777344 188.132812 107.4375 187.847656 L 128.851562 225.449219 C 128.429688 225.886719 128.085938 226.398438 127.84375 226.964844 L 79.605469 217.121094 C 79.679688 216.675781 79.730469 216.222656 79.730469 215.753906 C 79.730469 214.417969 79.398438 213.164062 78.816406 212.054688 Z M 137.335938 229.84375 L 175.109375 235.050781 C 175.351562 237.398438 176.929688 239.339844 179.074219 240.117188 L 170.75 271.203125 C 169.449219 270.269531 167.859375 269.714844 166.136719 269.714844 C 164.417969 269.714844 162.746094 270.296875 161.433594 271.273438 L 133.984375 233.65625 C 135.699219 233.097656 137.003906 231.636719 137.335938 229.839844 Z M 171.621094 271.9375 L 180.070312 240.386719 C 180.417969 240.449219 180.765625 240.488281 181.132812 240.488281 C 182.820312 240.488281 184.34375 239.792969 185.445312 238.679688 L 222.28125 269.894531 C 222.03125 270.355469 221.863281 270.863281 221.800781 271.410156 L 174.0625 277.597656 C 174.046875 275.371094 173.113281 273.367188 171.621094 271.9375 Z M 222.875 269.078125 L 186.097656 237.898438 C 186.785156 236.914062 187.191406 235.722656 187.191406 234.433594 C 187.191406 233.980469 187.136719 233.535156 187.042969 233.109375 L 215.726562 229.855469 C 216.4375 230.882812 217.566406 231.585938 218.871094 231.730469 L 224.703125 267.933594 C 223.992188 268.152344 223.371094 268.550781 222.878906 269.078125 Z M 217.703125 223.257812 L 205.925781 196.609375 C 207.195312 195.601562 208.011719 194.046875 208.011719 192.300781 C 208.011719 191.089844 207.617188 189.972656 206.957031 189.0625 L 233.742188 184.386719 C 234.011719 185.652344 234.816406 186.714844 235.914062 187.332031 L 222.152344 223.945312 C 221.390625 223.320312 220.414062 222.941406 219.347656 222.941406 C 218.765625 222.941406 218.21875 223.058594 217.707031 223.257812 Z M 222.933594 224.800781 L 236.875 187.726562 C 237.25 187.832031 237.644531 187.894531 238.054688 187.894531 C 239.148438 187.894531 240.140625 187.492188 240.914062 186.839844 L 261.25 203.285156 C 260.707031 203.886719 260.375 204.679688 260.375 205.550781 C 260.375 205.816406 260.40625 206.078125 260.46875 206.328125 L 223.316406 225.449219 C 223.207031 225.222656 223.082031 225.007812 222.941406 224.800781 Z M 263.742188 202.171875 C 263.144531 202.171875 262.578125 202.332031 262.089844 202.605469 L 241.613281 186.066406 C 242.140625 185.339844 242.457031 184.445312 242.457031 183.480469 C 242.457031 183.132812 242.410156 182.792969 242.335938 182.464844 L 267.449219 175.453125 C 267.777344 176.644531 268.660156 177.605469 269.800781 178.039062 L 264.363281 202.226562 C 264.164062 202.1875 263.953125 202.164062 263.742188 202.164062 Z M 267.3125 174.410156 L 241.980469 181.484375 C 241.484375 180.511719 240.640625 179.753906 239.613281 179.363281 L 266.683594 134.347656 C 267.261719 134.585938 267.886719 134.726562 268.539062 134.753906 L 270.484375 170.613281 C 268.6875 170.941406 267.316406 172.511719 267.3125 174.410156 Z M 303.238281 122.480469 C 302.792969 122.996094 302.515625 123.65625 302.476562 124.382812 L 274.035156 127.546875 C 273.316406 125.335938 271.246094 123.738281 268.796875 123.738281 C 268.75 123.738281 268.699219 123.746094 268.648438 123.746094 L 275.734375 92.558594 C 276.066406 92.640625 276.417969 92.683594 276.777344 92.683594 C 277.246094 92.683594 277.695312 92.613281 278.109375 92.480469 L 303.242188 122.472656 Z M 275.535156 62.453125 C 275.605469 62.453125 275.679688 62.449219 275.746094 62.441406 L 277.460938 83.929688 C 277.234375 83.894531 277.003906 83.867188 276.773438 83.867188 C 275.128906 83.867188 273.703125 84.765625 272.945312 86.09375 L 251.257812 69.144531 C 251.605469 68.574219 251.828125 67.914062 251.882812 67.207031 L 272.648438 60.667969 C 273.183594 61.726562 274.269531 62.453125 275.535156 62.453125 Z M 246.546875 62.558594 C 244.980469 62.898438 243.734375 64.0625 243.265625 65.578125 L 207.339844 59.101562 C 207.433594 58.570312 207.496094 58.019531 207.496094 57.457031 C 207.496094 55.367188 206.796875 53.445312 205.625 51.894531 L 232.855469 36.011719 C 233.660156 37.09375 234.941406 37.792969 236.390625 37.792969 C 237.164062 37.792969 237.890625 37.59375 238.523438 37.242188 Z M 232.46875 31.382812 C 232.164062 31.984375 231.984375 32.664062 231.984375 33.386719 C 231.984375 33.996094 232.113281 34.578125 232.335938 35.113281 L 204.949219 51.082031 C 203.257812 49.300781 200.875 48.179688 198.222656 48.179688 C 197.496094 48.179688 196.792969 48.273438 196.109375 48.429688 L 189.761719 20.984375 C 191.566406 20.566406 193.078125 19.414062 193.984375 17.859375 Z M 182.035156 16.679688 C 182.917969 19.285156 185.378906 21.160156 188.28125 21.160156 C 188.429688 21.160156 188.578125 21.152344 188.730469 21.140625 L 195.109375 48.734375 C 192.964844 49.5 191.175781 51.03125 190.09375 53.007812 L 142.554688 25.058594 C 142.59375 24.785156 142.621094 24.511719 142.621094 24.230469 C 142.621094 23.917969 142.585938 23.621094 142.542969 23.324219 Z M 131.859375 26.1875 C 132.164062 27 132.652344 27.722656 133.28125 28.296875 L 100.730469 73.441406 C 99.601562 72.679688 98.242188 72.242188 96.785156 72.242188 C 94.542969 72.242188 92.542969 73.289062 91.246094 74.921875 L 79.308594 69.8125 C 79.332031 69.601562 79.347656 69.390625 79.347656 69.171875 C 79.347656 68.578125 79.253906 68.007812 79.078125 67.46875 L 131.855469 26.1875 Z M 72.574219 74.515625 C 72.878906 74.589844 73.1875 74.632812 73.511719 74.65625 L 74.59375 106.554688 C 73.238281 106.875 72.234375 108.089844 72.234375 109.542969 C 72.234375 110.453125 72.632812 111.269531 73.261719 111.835938 L 57.300781 143.347656 C 56.550781 142.964844 55.703125 142.746094 54.800781 142.746094 C 54.464844 142.746094 54.136719 142.777344 53.820312 142.832031 Z M 53.960938 153.699219 C 54.234375 153.742188 54.511719 153.769531 54.800781 153.769531 C 56.082031 153.769531 57.261719 153.328125 58.199219 152.59375 L 71.847656 170.601562 C 71.308594 171.167969 70.976562 171.933594 70.976562 172.777344 C 70.976562 174.375 72.15625 175.691406 73.6875 175.914062 L 71.796875 207.796875 C 71.796875 207.796875 71.785156 207.796875 71.78125 207.796875 C 70.363281 207.796875 69.039062 208.167969 67.882812 208.820312 Z M 76.140625 222.402344 C 77.660156 221.40625 78.816406 219.90625 79.371094 218.128906 L 127.542969 227.964844 C 127.480469 228.273438 127.449219 228.589844 127.449219 228.917969 C 127.449219 230.355469 128.058594 231.648438 129.035156 232.558594 L 115.902344 255.15625 C 115.496094 255.0625 115.074219 255.003906 114.640625 255.003906 C 112.800781 255.003906 111.179688 255.910156 110.175781 257.296875 Z M 119.925781 262.085938 C 120.074219 261.585938 120.152344 261.066406 120.152344 260.515625 C 120.152344 258.277344 118.820312 256.359375 116.90625 255.492188 L 129.867188 233.191406 C 130.617188 233.640625 131.496094 233.90625 132.4375 233.90625 C 132.578125 233.90625 132.710938 233.894531 132.84375 233.886719 L 160.648438 271.9375 C 159.601562 272.945312 158.828125 274.246094 158.464844 275.703125 Z M 227.929688 268.296875 C 227.328125 267.953125 226.628906 267.75 225.890625 267.75 C 225.835938 267.75 225.773438 267.757812 225.71875 267.761719 L 219.910156 231.714844 C 222.058594 231.441406 223.722656 229.625 223.753906 227.410156 L 253.726562 229.140625 C 253.804688 231.144531 254.949219 232.875 256.613281 233.773438 Z M 260.628906 223.589844 C 260.179688 223.472656 259.714844 223.402344 259.226562 223.402344 C 256.460938 223.402344 254.183594 225.4375 253.78125 228.089844 L 223.644531 226.355469 C 223.632812 226.304688 223.621094 226.261719 223.605469 226.214844 L 260.925781 207.371094 C 261.15625 207.726562 261.457031 208.035156 261.800781 208.285156 L 260.625 223.589844 Z M 288.21875 189.523438 C 287.886719 190.046875 287.691406 190.667969 287.691406 191.332031 C 287.691406 191.699219 287.753906 192.054688 287.867188 192.386719 L 266.375 203.410156 C 266.089844 203.066406 265.746094 202.777344 265.351562 202.558594 L 270.675781 178.242188 C 270.847656 178.265625 271.023438 178.28125 271.199219 178.28125 C 272.320312 178.28125 273.328125 177.804688 274.035156 177.042969 L 288.226562 189.523438 Z M 274.171875 171.929688 C 273.527344 171.164062 272.59375 170.644531 271.539062 170.550781 L 269.59375 134.6875 C 270.578125 134.542969 271.484375 134.144531 272.234375 133.550781 L 299.097656 157.429688 C 298.371094 158.132812 297.921875 159.113281 297.921875 160.203125 C 297.921875 160.492188 297.953125 160.773438 298.015625 161.046875 L 274.171875 171.917969 Z M 274.171875 171.929688 " fill-opacity="1" fill-rule="nonzero"/></g><path fill="#1086f4" d="M 325.289062 162.078125 C 325.289062 162.382812 325.230469 162.671875 325.113281 162.953125 C 325 163.234375 324.832031 163.480469 324.621094 163.695312 C 324.40625 163.910156 324.15625 164.074219 323.878906 164.191406 C 323.597656 164.304688 323.304688 164.363281 323.003906 164.363281 C 322.699219 164.363281 322.40625 164.304688 322.128906 164.191406 C 321.847656 164.074219 321.601562 163.910156 321.386719 163.695312 C 321.171875 163.480469 321.007812 163.234375 320.890625 162.953125 C 320.773438 162.671875 320.714844 162.382812 320.714844 162.078125 C 320.714844 161.773438 320.773438 161.484375 320.890625 161.203125 C 321.007812 160.921875 321.171875 160.675781 321.386719 160.460938 C 321.601562 160.246094 321.847656 160.082031 322.128906 159.964844 C 322.40625 159.851562 322.699219 159.792969 323.003906 159.792969 C 323.304688 159.792969 323.597656 159.851562 323.878906 159.964844 C 324.15625 160.082031 324.40625 160.246094 324.621094 160.460938 C 324.832031 160.675781 325 160.921875 325.113281 161.203125 C 325.230469 161.484375 325.289062 161.773438 325.289062 162.078125 Z M 325.289062 162.078125 " fill-opacity="1" fill-rule="nonzero"/><path fill="#1086f4" d="M 284.878906 155.214844 C 284.960938 155.566406 284.976562 155.917969 284.917969 156.273438 C 284.859375 156.628906 284.734375 156.960938 284.546875 157.265625 C 284.359375 157.574219 284.117188 157.832031 283.824219 158.042969 C 283.535156 158.25 283.210938 158.398438 282.863281 158.480469 C 282.511719 158.5625 282.160156 158.574219 281.804688 158.519531 C 281.449219 158.460938 281.117188 158.335938 280.8125 158.148438 C 280.507812 157.957031 280.246094 157.71875 280.039062 157.425781 C 279.828125 157.132812 279.679688 156.8125 279.597656 156.464844 C 279.515625 156.113281 279.503906 155.761719 279.558594 155.40625 C 279.617188 155.050781 279.742188 154.71875 279.929688 154.414062 C 280.121094 154.105469 280.359375 153.847656 280.652344 153.636719 C 280.945312 153.429688 281.265625 153.28125 281.617188 153.199219 C 281.964844 153.117188 282.316406 153.105469 282.671875 153.160156 C 283.027344 153.21875 283.359375 153.34375 283.664062 153.53125 C 283.972656 153.71875 284.230469 153.960938 284.441406 154.253906 C 284.652344 154.546875 284.796875 154.867188 284.878906 155.214844 Z M 284.878906 155.214844 " fill-opacity="1" fill-rule="nonzero"/><path fill="#1086f4" d="M 296.289062 175.191406 C 296.289062 176.089844 297.023438 176.824219 297.921875 176.824219 C 298.820312 176.824219 299.550781 176.089844 299.550781 175.191406 C 299.550781 174.292969 298.820312 173.558594 297.921875 173.558594 C 297.023438 173.558594 296.289062 174.292969 296.289062 175.191406 Z M 296.289062 175.191406 " fill-opacity="1" fill-rule="nonzero"/><path fill="#1086f4" d="M 255.347656 185.152344 C 254.449219 185.152344 253.714844 185.882812 253.714844 186.785156 C 253.714844 187.683594 254.449219 188.414062 255.347656 188.414062 C 256.246094 188.414062 256.980469 187.683594 256.980469 186.785156 C 256.980469 185.882812 256.246094 185.152344 255.347656 185.152344 Z M 255.347656 185.152344 " fill-opacity="1" fill-rule="nonzero"/><path fill="#1086f4" d="M 249.257812 125.714844 C 248.359375 125.714844 247.628906 126.445312 247.628906 127.34375 C 247.628906 128.246094 248.359375 128.976562 249.257812 128.976562 C 250.160156 128.976562 250.890625 128.246094 250.890625 127.34375 C 250.890625 126.445312 250.160156 125.714844 249.257812 125.714844 Z M 249.257812 125.714844 " fill-opacity="1" fill-rule="nonzero"/><path fill="#1086f4" d="M 239.941406 203.90625 C 239.042969 203.90625 238.3125 204.640625 238.3125 205.539062 C 238.3125 206.4375 239.042969 207.171875 239.941406 207.171875 C 240.839844 207.171875 241.574219 206.4375 241.574219 205.539062 C 241.574219 204.640625 240.839844 203.90625 239.941406 203.90625 Z M 239.941406 203.90625 " fill-opacity="1" fill-rule="nonzero"/><path fill="#1086f4" d="M 212.191406 241.792969 C 211.292969 241.792969 210.558594 242.523438 210.558594 243.425781 C 210.558594 244.324219 211.292969 245.054688 212.191406 245.054688 C 213.089844 245.054688 213.824219 244.324219 213.824219 243.425781 C 213.824219 242.523438 213.089844 241.792969 212.191406 241.792969 Z M 212.191406 241.792969 " fill-opacity="1" fill-rule="nonzero"/><path fill="#1086f4" d="M 303.753906 140.855469 C 303.839844 141.203125 303.851562 141.558594 303.792969 141.914062 C 303.734375 142.269531 303.613281 142.597656 303.421875 142.90625 C 303.234375 143.210938 302.992188 143.46875 302.703125 143.679688 C 302.410156 143.890625 302.089844 144.035156 301.738281 144.117188 C 301.386719 144.203125 301.035156 144.214844 300.679688 144.15625 C 300.324219 144.097656 299.992188 143.976562 299.6875 143.785156 C 299.382812 143.597656 299.125 143.355469 298.914062 143.066406 C 298.703125 142.773438 298.554688 142.453125 298.472656 142.101562 C 298.390625 141.75 298.378906 141.398438 298.4375 141.042969 C 298.492188 140.6875 298.617188 140.359375 298.804688 140.050781 C 298.996094 139.746094 299.234375 139.488281 299.527344 139.277344 C 299.820312 139.066406 300.140625 138.917969 300.492188 138.835938 C 300.839844 138.753906 301.195312 138.742188 301.550781 138.800781 C 301.90625 138.855469 302.234375 138.980469 302.542969 139.167969 C 302.847656 139.359375 303.105469 139.601562 303.316406 139.890625 C 303.527344 140.183594 303.671875 140.503906 303.753906 140.855469 Z M 303.753906 140.855469 " fill-opacity="1" fill-rule="nonzero"/><path fill="#1086f4" d="M 284.621094 112.714844 C 284.707031 113.0625 284.71875 113.414062 284.660156 113.769531 C 284.601562 114.125 284.480469 114.457031 284.289062 114.761719 C 284.101562 115.070312 283.859375 115.328125 283.566406 115.539062 C 283.277344 115.75 282.957031 115.894531 282.605469 115.976562 C 282.253906 116.058594 281.902344 116.074219 281.546875 116.015625 C 281.191406 115.957031 280.859375 115.832031 280.554688 115.644531 C 280.25 115.457031 279.992188 115.214844 279.78125 114.921875 C 279.570312 114.632812 279.421875 114.308594 279.339844 113.960938 C 279.257812 113.609375 279.246094 113.257812 279.304688 112.902344 C 279.359375 112.546875 279.484375 112.214844 279.671875 111.910156 C 279.863281 111.601562 280.101562 111.34375 280.394531 111.136719 C 280.6875 110.925781 281.007812 110.777344 281.359375 110.695312 C 281.707031 110.613281 282.0625 110.601562 282.417969 110.65625 C 282.773438 110.714844 283.101562 110.839844 283.410156 111.027344 C 283.714844 111.21875 283.972656 111.457031 284.183594 111.75 C 284.394531 112.042969 284.539062 112.363281 284.621094 112.714844 Z M 284.621094 112.714844 " fill-opacity="1" fill-rule="nonzero"/><path fill="#1086f4" d="M 208.566406 32.761719 C 208.648438 33.113281 208.660156 33.464844 208.605469 33.820312 C 208.546875 34.175781 208.421875 34.507812 208.234375 34.8125 C 208.046875 35.121094 207.804688 35.378906 207.511719 35.589844 C 207.21875 35.796875 206.898438 35.945312 206.550781 36.027344 C 206.199219 36.109375 205.847656 36.125 205.492188 36.066406 C 205.136719 36.007812 204.804688 35.882812 204.5 35.695312 C 204.191406 35.507812 203.933594 35.265625 203.722656 34.972656 C 203.515625 34.679688 203.367188 34.359375 203.285156 34.011719 C 203.203125 33.660156 203.191406 33.308594 203.246094 32.953125 C 203.304688 32.597656 203.429688 32.265625 203.617188 31.960938 C 203.808594 31.652344 204.046875 31.394531 204.339844 31.183594 C 204.632812 30.976562 204.953125 30.828125 205.300781 30.746094 C 205.652344 30.664062 206.003906 30.652344 206.359375 30.707031 C 206.714844 30.765625 207.046875 30.890625 207.351562 31.078125 C 207.660156 31.269531 207.917969 31.507812 208.128906 31.800781 C 208.335938 32.09375 208.484375 32.414062 208.566406 32.761719 Z M 208.566406 32.761719 " fill-opacity="1" fill-rule="nonzero"/><path fill="#1086f4" d="M 178.882812 32.761719 C 178.96875 33.113281 178.980469 33.464844 178.921875 33.820312 C 178.863281 34.175781 178.742188 34.507812 178.550781 34.8125 C 178.363281 35.117188 178.121094 35.375 177.828125 35.585938 C 177.539062 35.796875 177.21875 35.945312 176.867188 36.027344 C 176.515625 36.109375 176.164062 36.121094 175.808594 36.0625 C 175.453125 36.007812 175.121094 35.882812 174.816406 35.695312 C 174.511719 35.503906 174.253906 35.265625 174.042969 34.972656 C 173.832031 34.679688 173.683594 34.359375 173.601562 34.007812 C 173.519531 33.660156 173.507812 33.304688 173.566406 32.949219 C 173.621094 32.59375 173.746094 32.265625 173.933594 31.957031 C 174.125 31.652344 174.363281 31.394531 174.65625 31.183594 C 174.949219 30.972656 175.269531 30.828125 175.621094 30.746094 C 175.96875 30.660156 176.324219 30.648438 176.679688 30.707031 C 177.035156 30.765625 177.363281 30.886719 177.671875 31.078125 C 177.976562 31.265625 178.234375 31.507812 178.445312 31.796875 C 178.65625 32.089844 178.800781 32.410156 178.882812 32.761719 Z M 178.882812 32.761719 " fill-opacity="1" fill-rule="nonzero"/><path fill="#1086f4" d="M 325.644531 116.960938 C 325.726562 117.3125 325.738281 117.664062 325.679688 118.019531 C 325.625 118.375 325.5 118.703125 325.3125 119.011719 C 325.121094 119.316406 324.882812 119.574219 324.589844 119.785156 C 324.296875 119.996094 323.976562 120.140625 323.625 120.226562 C 323.277344 120.308594 322.921875 120.320312 322.566406 120.261719 C 322.214844 120.203125 321.882812 120.082031 321.578125 119.890625 C 321.269531 119.703125 321.011719 119.460938 320.800781 119.171875 C 320.589844 118.878906 320.445312 118.558594 320.363281 118.207031 C 320.277344 117.855469 320.265625 117.503906 320.324219 117.148438 C 320.382812 116.792969 320.503906 116.464844 320.695312 116.15625 C 320.882812 115.851562 321.125 115.59375 321.417969 115.382812 C 321.707031 115.171875 322.03125 115.027344 322.378906 114.941406 C 322.730469 114.859375 323.082031 114.847656 323.4375 114.90625 C 323.792969 114.964844 324.125 115.085938 324.429688 115.277344 C 324.734375 115.464844 324.992188 115.707031 325.203125 115.996094 C 325.414062 116.289062 325.5625 116.609375 325.644531 116.960938 Z M 325.644531 116.960938 " fill-opacity="1" fill-rule="nonzero"/><path fill="#1086f4" d="M 293.910156 70.773438 C 294.550781 71.613281 295.761719 71.769531 296.601562 71.125 C 297.4375 70.484375 297.597656 69.273438 296.953125 68.433594 C 296.3125 67.59375 295.101562 67.4375 294.261719 68.082031 C 293.421875 68.722656 293.265625 69.933594 293.910156 70.773438 Z M 293.910156 70.773438 " fill-opacity="1" fill-rule="nonzero"/><path fill="#1086f4" d="M 255.230469 48.984375 C 254.386719 49.628906 254.230469 50.839844 254.875 51.675781 C 255.519531 52.515625 256.730469 52.675781 257.566406 52.03125 C 258.410156 51.386719 258.566406 50.179688 257.921875 49.339844 C 257.277344 48.496094 256.070312 48.339844 255.230469 48.984375 Z M 255.230469 48.984375 " fill-opacity="1" fill-rule="nonzero"/><g fill="#ffffff" fill-opacity="1"><g transform="translate(65.520458, 333.831282)"><g><path d="M 3.765625 -31.765625 L 11.109375 -31.765625 L 11.109375 -5.984375 L 27.046875 -5.984375 L 27.046875 0 L 3.765625 0 Z M 3.765625 -31.765625 "/></g></g></g><g fill="#ffffff" fill-opacity="1"><g transform="translate(97.463721, 333.831282)"><g><path d="M 28.359375 -5.90625 L 28.359375 0 L 3.765625 0 L 3.765625 -31.765625 L 27.765625 -31.765625 L 27.765625 -25.859375 L 11.078125 -25.859375 L 11.078125 -18.96875 L 25.8125 -18.96875 L 25.8125 -13.25 L 11.078125 -13.25 L 11.078125 -5.90625 Z M 28.359375 -5.90625 "/></g></g></g><g fill="#ffffff" fill-opacity="1"><g transform="translate(132.446978, 333.831282)"><g><path d="M 24.6875 -6.8125 L 9.9375 -6.8125 L 7.125 0 L -0.40625 0 L 13.75 -31.765625 L 21.015625 -31.765625 L 35.21875 0 L 27.5 0 Z M 22.375 -12.390625 L 17.328125 -24.546875 L 12.296875 -12.390625 Z M 22.375 -12.390625 "/></g></g></g><g fill="#ffffff" fill-opacity="1"><g transform="translate(171.740665, 333.831282)"><g><path d="M 3.765625 -31.765625 L 18.203125 -31.765625 C 21.648438 -31.765625 24.695312 -31.101562 27.34375 -29.78125 C 29.988281 -28.46875 32.039062 -26.613281 33.5 -24.21875 C 34.96875 -21.832031 35.703125 -19.050781 35.703125 -15.875 C 35.703125 -12.695312 34.96875 -9.914062 33.5 -7.53125 C 32.039062 -5.144531 29.988281 -3.289062 27.34375 -1.96875 C 24.695312 -0.65625 21.648438 0 18.203125 0 L 3.765625 0 Z M 17.828125 -6.03125 C 21.003906 -6.03125 23.535156 -6.914062 25.421875 -8.6875 C 27.316406 -10.457031 28.265625 -12.851562 28.265625 -15.875 C 28.265625 -18.90625 27.316406 -21.304688 25.421875 -23.078125 C 23.535156 -24.847656 21.003906 -25.734375 17.828125 -25.734375 L 11.109375 -25.734375 L 11.109375 -6.03125 Z M 17.828125 -6.03125 "/></g></g></g><g fill="#ffffff" fill-opacity="1"><g transform="translate(213.756745, 333.831282)"><g/></g></g><g fill="#ffffff" fill-opacity="1"><g transform="translate(231.13523, 333.831282)"><g><path d="M 32.671875 0 L 32.625 -19.0625 L 23.28125 -3.359375 L 19.96875 -3.359375 L 10.65625 -18.65625 L 10.65625 0 L 3.765625 0 L 3.765625 -31.765625 L 9.84375 -31.765625 L 21.734375 -12.03125 L 33.4375 -31.765625 L 39.46875 -31.765625 L 39.5625 0 Z M 32.671875 0 "/></g></g></g><g fill="#ffffff" fill-opacity="1"><g transform="translate(279.004438, 333.831282)"><g><path d="M 28.359375 -5.90625 L 28.359375 0 L 3.765625 0 L 3.765625 -31.765625 L 27.765625 -31.765625 L 27.765625 -25.859375 L 11.078125 -25.859375 L 11.078125 -18.96875 L 25.8125 -18.96875 L 25.8125 -13.25 L 11.078125 -13.25 L 11.078125 -5.90625 Z M 28.359375 -5.90625 "/></g></g></g><g fill="#1086f4" fill-opacity="1"><g transform="translate(98.843319, 367.706876)"><g><path d="M 9.390625 -17.015625 C 10.890625 -17.015625 12.191406 -16.765625 13.296875 -16.265625 C 14.410156 -15.765625 15.269531 -15.050781 15.875 -14.125 C 16.476562 -13.195312 16.78125 -12.101562 16.78125 -10.84375 C 16.78125 -9.59375 16.476562 -8.5 15.875 -7.5625 C 15.269531 -6.632812 14.410156 -5.921875 13.296875 -5.421875 C 12.191406 -4.929688 10.890625 -4.6875 9.390625 -4.6875 L 5.953125 -4.6875 L 5.953125 0 L 2.015625 0 L 2.015625 -17.015625 Z M 9.171875 -7.90625 C 10.347656 -7.90625 11.242188 -8.160156 11.859375 -8.671875 C 12.472656 -9.179688 12.78125 -9.90625 12.78125 -10.84375 C 12.78125 -11.800781 12.472656 -12.535156 11.859375 -13.046875 C 11.242188 -13.554688 10.347656 -13.8125 9.171875 -13.8125 L 5.953125 -13.8125 L 5.953125 -7.90625 Z M 9.171875 -7.90625 "/></g></g></g><g fill="#1086f4" fill-opacity="1"><g transform="translate(121.500514, 367.706876)"><g><path d="M 2.015625 -17.015625 L 5.953125 -17.015625 L 5.953125 -3.203125 L 14.484375 -3.203125 L 14.484375 0 L 2.015625 0 Z M 2.015625 -17.015625 "/></g></g></g><g fill="#1086f4" fill-opacity="1"><g transform="translate(141.045993, 367.706876)"><g><path d="M 13.21875 -3.640625 L 5.328125 -3.640625 L 3.8125 0 L -0.21875 0 L 7.359375 -17.015625 L 11.25 -17.015625 L 18.859375 0 L 14.734375 0 Z M 11.984375 -6.640625 L 9.28125 -13.15625 L 6.59375 -6.640625 Z M 11.984375 -6.640625 "/></g></g></g><g fill="#1086f4" fill-opacity="1"><g transform="translate(164.529749, 367.706876)"><g><path d="M 5.546875 -13.8125 L 0.09375 -13.8125 L 0.09375 -17.015625 L 14.921875 -17.015625 L 14.921875 -13.8125 L 9.484375 -13.8125 L 9.484375 0 L 5.546875 0 Z M 5.546875 -13.8125 "/></g></g></g><g fill="#1086f4" fill-opacity="1"><g transform="translate(184.41557, 367.706876)"><g><path d="M 5.953125 -13.859375 L 5.953125 -9.359375 L 13.828125 -9.359375 L 13.828125 -6.203125 L 5.953125 -6.203125 L 5.953125 0 L 2.015625 0 L 2.015625 -17.015625 L 14.875 -17.015625 L 14.875 -13.859375 Z M 5.953125 -13.859375 "/></g></g></g><g fill="#1086f4" fill-opacity="1"><g transform="translate(204.811906, 367.706876)"><g><path d="M 10.265625 0.296875 C 8.492188 0.296875 6.898438 -0.0820312 5.484375 -0.84375 C 4.066406 -1.613281 2.957031 -2.664062 2.15625 -4 C 1.351562 -5.332031 0.953125 -6.835938 0.953125 -8.515625 C 0.953125 -10.179688 1.351562 -11.679688 2.15625 -13.015625 C 2.957031 -14.359375 4.066406 -15.410156 5.484375 -16.171875 C 6.898438 -16.929688 8.492188 -17.3125 10.265625 -17.3125 C 12.023438 -17.3125 13.609375 -16.929688 15.015625 -16.171875 C 16.429688 -15.410156 17.546875 -14.359375 18.359375 -13.015625 C 19.171875 -11.679688 19.578125 -10.179688 19.578125 -8.515625 C 19.578125 -6.835938 19.171875 -5.332031 18.359375 -4 C 17.546875 -2.664062 16.429688 -1.613281 15.015625 -0.84375 C 13.609375 -0.0820312 12.023438 0.296875 10.265625 0.296875 Z M 10.265625 -3.0625 C 11.265625 -3.0625 12.171875 -3.289062 12.984375 -3.75 C 13.796875 -4.21875 14.429688 -4.863281 14.890625 -5.6875 C 15.347656 -6.507812 15.578125 -7.453125 15.578125 -8.515625 C 15.578125 -9.566406 15.347656 -10.503906 14.890625 -11.328125 C 14.429688 -12.148438 13.796875 -12.789062 12.984375 -13.25 C 12.171875 -13.71875 11.265625 -13.953125 10.265625 -13.953125 C 9.253906 -13.953125 8.34375 -13.71875 7.53125 -13.25 C 6.726562 -12.789062 6.09375 -12.148438 5.625 -11.328125 C 5.164062 -10.503906 4.9375 -9.566406 4.9375 -8.515625 C 4.9375 -7.453125 5.164062 -6.507812 5.625 -5.6875 C 6.09375 -4.863281 6.726562 -4.21875 7.53125 -3.75 C 8.34375 -3.289062 9.253906 -3.0625 10.265625 -3.0625 Z M 10.265625 -3.0625 "/></g></g></g><g fill="#1086f4" fill-opacity="1"><g transform="translate(230.191864, 367.706876)"><g><path d="M 12.859375 0 L 9.578125 -4.734375 L 5.953125 -4.734375 L 5.953125 0 L 2.015625 0 L 2.015625 -17.015625 L 9.390625 -17.015625 C 10.890625 -17.015625 12.191406 -16.765625 13.296875 -16.265625 C 14.410156 -15.765625 15.269531 -15.050781 15.875 -14.125 C 16.476562 -13.195312 16.78125 -12.101562 16.78125 -10.84375 C 16.78125 -9.582031 16.472656 -8.492188 15.859375 -7.578125 C 15.253906 -6.660156 14.394531 -5.957031 13.28125 -5.46875 L 17.09375 0 Z M 12.78125 -10.84375 C 12.78125 -11.800781 12.472656 -12.535156 11.859375 -13.046875 C 11.242188 -13.554688 10.347656 -13.8125 9.171875 -13.8125 L 5.953125 -13.8125 L 5.953125 -7.875 L 9.171875 -7.875 C 10.347656 -7.875 11.242188 -8.132812 11.859375 -8.65625 C 12.472656 -9.175781 12.78125 -9.90625 12.78125 -10.84375 Z M 12.78125 -10.84375 "/></g></g></g><g fill="#1086f4" fill-opacity="1"><g transform="translate(252.921988, 367.706876)"><g><path d="M 17.5 0 L 17.484375 -10.21875 L 12.46875 -1.796875 L 10.703125 -1.796875 L 5.71875 -10 L 5.71875 0 L 2.015625 0 L 2.015625 -17.015625 L 5.28125 -17.015625 L 11.640625 -6.4375 L 17.921875 -17.015625 L 21.15625 -17.015625 L 21.203125 0 Z M 17.5 0 "/></g></g></g></svg>